<svg version="1.1" xmlns="http://www.w3.org/2000/svg" viewBox="0 0 4194.466436086953 1489.1456541870116" width="8388.932872173906" height="2978.291308374023">
  <!-- svg-source:excalidraw -->
  
  <defs>
    <style class="style-fonts">
      @font-face {
        font-family: "Virgil";
        src: url("https://excalidraw.com/Virgil.woff2");
      }
      @font-face {
        font-family: "Cascadia";
        src: url("https://excalidraw.com/Cascadia.woff2");
      }
      @font-face {
        font-family: "Assistant";
        src: url("https://excalidraw.com/Assistant-Regular.woff2");
      }
    </style>
    
  </defs>
  <rect x="0" y="0" width="4194.466436086953" height="1489.1456541870116" fill="#ffffff"></rect><g stroke-linecap="round" transform="translate(447.40356846884004 356.3074066604296) rotate(0 577.3531198533443 231.490234375)"><path d="M32 0 C311.03 -2.27, 590.21 -1.89, 1122.71 0 M32 0 C358.89 2.45, 685.22 2.1, 1122.71 0 M1122.71 0 C1145.44 -0.66, 1153.17 10.71, 1154.71 32 M1122.71 0 C1145.2 1.2, 1156.46 12.37, 1154.71 32 M1154.71 32 C1157.04 164, 1156.66 296.61, 1154.71 430.98 M1154.71 32 C1152.92 132.16, 1153.07 233.29, 1154.71 430.98 M1154.71 430.98 C1156.02 452.19, 1145.92 464.17, 1122.71 462.98 M1154.71 430.98 C1154.98 452.7, 1142.89 464.67, 1122.71 462.98 M1122.71 462.98 C735.97 464.42, 348.57 464.03, 32 462.98 M1122.71 462.98 C760.16 462.5, 397.51 462.02, 32 462.98 M32 462.98 C11.14 461.3, -0.52 450.45, 0 430.98 M32 462.98 C10.89 464.6, -0.63 450.31, 0 430.98 M0 430.98 C-0.56 300.35, -0.24 169.98, 0 32 M0 430.98 C1.16 347.01, 0.88 262.38, 0 32 M0 32 C0.7 10.1, 9.02 -1.74, 32 0 M0 32 C-0.03 9.01, 9.07 -0.69, 32 0" stroke="#1e1e1e" stroke-width="2" fill="none"></path></g><g stroke-linecap="round" transform="translate(446.27904149143717 938.876737420119) rotate(0 583.5267114670457 231.490234375)"><path d="M32 0 C437.59 -3.09, 844.06 -2.29, 1135.05 0 M32 0 C349.89 -0.95, 667.74 -0.81, 1135.05 0 M1135.05 0 C1154.53 0.11, 1167.58 10.92, 1167.05 32 M1135.05 0 C1156.4 0.76, 1165.08 9.77, 1167.05 32 M1167.05 32 C1167.92 155.61, 1170.04 281.16, 1167.05 430.98 M1167.05 32 C1169.27 182.52, 1169.03 333.88, 1167.05 430.98 M1167.05 430.98 C1165.68 453.07, 1155.04 464.83, 1135.05 462.98 M1167.05 430.98 C1166.17 453.43, 1157.58 462.27, 1135.05 462.98 M1135.05 462.98 C763.83 462.14, 391.48 462.05, 32 462.98 M1135.05 462.98 C774.99 461.63, 414.59 462.31, 32 462.98 M32 462.98 C9.28 462.07, 0.06 453.19, 0 430.98 M32 462.98 C11.74 462.79, -0.2 453.07, 0 430.98 M0 430.98 C1.05 349.47, 2.03 265.86, 0 32 M0 430.98 C0.59 302.29, 0.51 173.57, 0 32 M0 32 C-0.09 8.85, 10.28 0.94, 32 0 M0 32 C-0.76 10.77, 11.28 2.08, 32 0" stroke="#1e1e1e" stroke-width="2" fill="none"></path></g><g stroke-linecap="round" transform="translate(2056.2164884280455 590.4757886134254) rotate(0 284.396100088573 318.9445478800564)"><path d="M32 0 C138.93 2.35, 244.9 2.35, 536.79 0 M32 0 C177.45 0.08, 322.83 0.3, 536.79 0 M536.79 0 C557.38 0.02, 568.67 10.95, 568.79 32 M536.79 0 C556.4 0.42, 569.14 10.01, 568.79 32 M568.79 32 C569.53 222.65, 569.61 413.94, 568.79 605.89 M568.79 32 C567.12 218.68, 566.85 405.81, 568.79 605.89 M568.79 605.89 C569.51 627.32, 558.72 636.08, 536.79 637.89 M568.79 605.89 C570.82 629.02, 558.37 638.71, 536.79 637.89 M536.79 637.89 C376.93 636.42, 218.06 637.69, 32 637.89 M536.79 637.89 C395.8 637.37, 253.72 637.49, 32 637.89 M32 637.89 C10.65 638.96, -1.37 626.5, 0 605.89 M32 637.89 C9.55 637.59, -2.22 626.37, 0 605.89 M0 605.89 C1.94 401.21, 1.52 195.89, 0 32 M0 605.89 C-0.96 474.73, -1.27 343.76, 0 32 M0 32 C1.14 9.72, 9.2 -1.92, 32 0 M0 32 C0.04 8.6, 10.03 -0.64, 32 0" stroke="#1e1e1e" stroke-width="2" fill="none"></path></g><g stroke-linecap="round" transform="translate(2931.3640638420893 589.1843103214496) rotate(0 401.02933792175213 318.9445478800564)"><path d="M32 0 C200.79 0.74, 368.74 0.92, 770.06 0 M32 0 C199.77 -1.37, 367.08 -2.03, 770.06 0 M770.06 0 C792.45 0.09, 800.62 8.92, 802.06 32 M770.06 0 C791.68 1.86, 801.71 11.38, 802.06 32 M802.06 32 C804.2 199.73, 804.89 368.94, 802.06 605.89 M802.06 32 C804.23 218.39, 803.71 404.99, 802.06 605.89 M802.06 605.89 C800.11 628.22, 790.13 638.35, 770.06 637.89 M802.06 605.89 C802.77 625.02, 792.7 637.41, 770.06 637.89 M770.06 637.89 C573.43 636, 378.69 635.62, 32 637.89 M770.06 637.89 C619.83 635.54, 469.89 634.99, 32 637.89 M32 637.89 C12.45 637.17, 0.49 626.63, 0 605.89 M32 637.89 C10.96 637.32, -1.75 628.95, 0 605.89 M0 605.89 C0.29 425.19, 0.64 245.25, 0 32 M0 605.89 C-0.31 400.38, 0.26 194.63, 0 32 M0 32 C-0.31 11.86, 10.94 0.22, 32 0 M0 32 C-0.73 8.56, 11.07 0.18, 32 0" stroke="#1e1e1e" stroke-width="2" fill="none"></path></g><g transform="translate(473.65085804261076 368.50993296594913) rotate(0 89.57196807861328 17.5)"><text x="0" y="0" font-family="Virgil, Segoe UI Emoji" font-size="28px" fill="#f08c00" text-anchor="start" style="white-space: pre;" direction="ltr" dominant-baseline="text-before-edge">DataObjects</text></g><g transform="translate(482.0298620828234 954.4730671848222) rotate(0 99.03596496582031 17.5)"><text x="0" y="0" font-family="Virgil, Segoe UI Emoji" font-size="28px" fill="#f08c00" text-anchor="start" style="white-space: pre;" direction="ltr" dominant-baseline="text-before-edge">LabelDetector</text></g><g transform="translate(2080.974637775338 602.1073480604311) rotate(0 95.36797332763672 17.5)"><text x="0" y="0" font-family="Virgil, Segoe UI Emoji" font-size="28px" fill="#f08c00" text-anchor="start" style="white-space: pre;" direction="ltr" dominant-baseline="text-before-edge">API GateWay</text></g><g transform="translate(2948.6182868622423 605.7703834489331) rotate(0 26.305992126464844 17.5)"><text x="0" y="0" font-family="Virgil, Segoe UI Emoji" font-size="28px" fill="#f08c00" text-anchor="start" style="white-space: pre;" direction="ltr" dominant-baseline="text-before-edge">RIA</text></g><g transform="translate(1259.6842900268437 765.8189461447811) rotate(0 37.919960021972656 12.5)"><text x="0" y="0" font-family="Virgil, Segoe UI Emoji" font-size="20px" fill="#2f9e44" text-anchor="start" style="white-space: pre;" direction="ltr" dominant-baseline="text-before-edge">Express</text></g><g transform="translate(1262.3227639300303 1356.2149753592244) rotate(0 37.919960021972656 12.5)"><text x="0" y="0" font-family="Virgil, Segoe UI Emoji" font-size="20px" fill="#2f9e44" text-anchor="start" style="white-space: pre;" direction="ltr" dominant-baseline="text-before-edge">Express</text></g><g transform="translate(2291.0243200463465 1181.3021441293567) rotate(0 23.929977416992188 12.5)"><text x="0" y="0" font-family="Virgil, Segoe UI Emoji" font-size="20px" fill="#2f9e44" text-anchor="start" style="white-space: pre;" direction="ltr" dominant-baseline="text-before-edge">Nginx</text></g><g transform="translate(474.0749865578884 436.6212423847842) rotate(0 47.169952392578125 25)"><text x="0" y="0" font-family="Virgil, Segoe UI Emoji" font-size="20px" fill="#1e1e1e" text-anchor="start" style="white-space: pre;" direction="ltr" dominant-baseline="text-before-edge">Controller</text><text x="0" y="25" font-family="Virgil, Segoe UI Emoji" font-size="20px" fill="#1e1e1e" text-anchor="start" style="white-space: pre;" direction="ltr" dominant-baseline="text-before-edge">Routes</text></g><g transform="translate(489.3189544733079 1012.4151556908151) rotate(0 47.169952392578125 25)"><text x="0" y="0" font-family="Virgil, Segoe UI Emoji" font-size="20px" fill="#1e1e1e" text-anchor="start" style="white-space: pre;" direction="ltr" dominant-baseline="text-before-edge">Controller</text><text x="0" y="25" font-family="Virgil, Segoe UI Emoji" font-size="20px" fill="#1e1e1e" text-anchor="start" style="white-space: pre;" direction="ltr" dominant-baseline="text-before-edge">Routes</text></g><g transform="translate(476.9945688956199 490.58419836359917) rotate(0 30.01996612548828 12.5)"><text x="0" y="0" font-family="Virgil, Segoe UI Emoji" font-size="20px" fill="#1e1e1e" text-anchor="start" style="white-space: pre;" direction="ltr" dominant-baseline="text-before-edge">Tests</text></g><g transform="translate(476.7578460033714 521.88093740962) rotate(0 30.609970092773438 12.5)"><text x="0" y="0" font-family="Virgil, Segoe UI Emoji" font-size="20px" fill="#1e1e1e" text-anchor="start" style="white-space: pre;" direction="ltr" dominant-baseline="text-before-edge">Errors</text></g><g transform="translate(490.2227194111163 1064.5676297727268) rotate(0 30.01996612548828 12.5)"><text x="0" y="0" font-family="Virgil, Segoe UI Emoji" font-size="20px" fill="#1e1e1e" text-anchor="start" style="white-space: pre;" direction="ltr" dominant-baseline="text-before-edge">Tests</text></g><g transform="translate(489.9859965188678 1096.1750676148235) rotate(0 30.609970092773438 12.5)"><text x="0" y="0" font-family="Virgil, Segoe UI Emoji" font-size="20px" fill="#1e1e1e" text-anchor="start" style="white-space: pre;" direction="ltr" dominant-baseline="text-before-edge">Errors</text></g><g stroke-linecap="round"><g transform="translate(2052.187317695053 1019.2633489577642) rotate(0 -217.3975951448624 28.0221269101923)"><path d="M0.87 1.05 C-71.71 10.36, -362.8 46.34, -435.4 55.47 M-0.13 0.56 C-72.32 10.06, -360.45 47.29, -433 56.7" stroke="#1e1e1e" stroke-width="2" fill="none"></path></g><g transform="translate(2052.187317695053 1019.2633489577642) rotate(0 -217.3975951448624 28.0221269101923)"><path d="M-410.8 45.2 C-415.88 47.88, -425.39 52.53, -433 56.7 M-410.8 45.2 C-418.1 48.8, -424.17 51.04, -433 56.7" stroke="#1e1e1e" stroke-width="2" fill="none"></path></g><g transform="translate(2052.187317695053 1019.2633489577642) rotate(0 -217.3975951448624 28.0221269101923)"><path d="M-408.6 62.16 C-414.3 59.67, -424.48 59.13, -433 56.7 M-408.6 62.16 C-416.35 61, -423.04 58.48, -433 56.7" stroke="#1e1e1e" stroke-width="2" fill="none"></path></g></g><mask></mask><g stroke-linecap="round"><g transform="translate(2053.9528106123526 729.9553615277166) rotate(0 -222.29625660521322 -52.87390425075253)"><path d="M-0.35 0.71 C-74.34 -16.67, -370.8 -86.94, -444.83 -104.8 M1.66 0.03 C-72.43 -17.62, -371.42 -88.84, -445.91 -106.42" stroke="#1e1e1e" stroke-width="2" fill="none"></path></g><g transform="translate(2053.9528106123526 729.9553615277166) rotate(0 -222.29625660521322 -52.87390425075253)"><path d="M-421.08 -109.32 C-425.51 -109.14, -430.71 -108, -445.91 -106.42 M-421.08 -109.32 C-427.64 -109.33, -432.18 -107.78, -445.91 -106.42" stroke="#1e1e1e" stroke-width="2" fill="none"></path></g><g transform="translate(2053.9528106123526 729.9553615277166) rotate(0 -222.29625660521322 -52.87390425075253)"><path d="M-425.03 -92.68 C-428.49 -96.24, -432.8 -98.85, -445.91 -106.42 M-425.03 -92.68 C-430.75 -96.72, -434.33 -99.24, -445.91 -106.42" stroke="#1e1e1e" stroke-width="2" fill="none"></path></g></g><mask></mask><g stroke-linecap="round" transform="translate(1464.3068421224116 1042.5615504588782) rotate(0 60.1260473511104 54.13407926405483)"><path d="M27.07 0 C43.56 0.65, 56.97 0.33, 93.19 0 M27.07 0 C46.14 0.17, 65.71 0.93, 93.19 0 M93.19 0 C111.51 1.01, 118.83 7.03, 120.25 27.07 M93.19 0 C109.34 -0.03, 121.32 9.39, 120.25 27.07 M120.25 27.07 C121.8 42.31, 119.37 52.61, 120.25 81.2 M120.25 27.07 C120.68 41.39, 121 55.96, 120.25 81.2 M120.25 81.2 C120.51 100.45, 109.71 109.7, 93.19 108.27 M120.25 81.2 C122.28 99.23, 109.48 106.66, 93.19 108.27 M93.19 108.27 C75.95 109.91, 57.5 107.95, 27.07 108.27 M93.19 108.27 C73.72 108.32, 52.57 107.57, 27.07 108.27 M27.07 108.27 C11.02 108.91, -1.28 100.21, 0 81.2 M27.07 108.27 C6.94 106.72, 0.86 101.36, 0 81.2 M0 81.2 C0.94 60.02, -1.54 39.67, 0 27.07 M0 81.2 C-0.81 65.58, -1.09 49.32, 0 27.07 M0 27.07 C-0.19 10.87, 7.25 1.1, 27.07 0 M0 27.07 C-0.59 8.05, 7.68 -1.67, 27.07 0" stroke="#1e1e1e" stroke-width="2" fill="none"></path></g><g transform="translate(1483.2029166341667 1071.695629722933) rotate(0 41.22997283935547 25)"><text x="41.22997283935547" y="0" font-family="Virgil, Segoe UI Emoji" font-size="20px" fill="#1e1e1e" text-anchor="middle" style="white-space: pre;" direction="ltr" dominant-baseline="text-before-edge">Routes </text><text x="41.22997283935547" y="25" font-family="Virgil, Segoe UI Emoji" font-size="20px" fill="#1e1e1e" text-anchor="middle" style="white-space: pre;" direction="ltr" dominant-baseline="text-before-edge">/analyse</text></g><g stroke-linecap="round" transform="translate(2090.448742095266 837.5212039311176) rotate(0 43.08356638922737 40.967855539756556)"><path d="M20.48 0 C30.13 1.21, 40.86 -0.22, 65.68 0 M20.48 0 C35.22 -0.62, 47.68 -0.19, 65.68 0 M65.68 0 C81.03 0.88, 86.64 8.41, 86.17 20.48 M65.68 0 C81.45 -0.91, 88.2 5.1, 86.17 20.48 M86.17 20.48 C88.14 33.57, 85.25 46.2, 86.17 61.45 M86.17 20.48 C86.52 31.44, 85.2 40.87, 86.17 61.45 M86.17 61.45 C87.13 76.02, 78.3 81.19, 65.68 81.94 M86.17 61.45 C86.95 74.63, 81.05 80.14, 65.68 81.94 M65.68 81.94 C48.66 80.53, 33.29 82.93, 20.48 81.94 M65.68 81.94 C48.73 81.41, 30.96 82.56, 20.48 81.94 M20.48 81.94 C7.34 80.52, -1.4 73.74, 0 61.45 M20.48 81.94 C5.58 82.04, 0.33 75.34, 0 61.45 M0 61.45 C-0.24 51.4, -0.03 38.43, 0 20.48 M0 61.45 C0 50.49, -0.99 40.91, 0 20.48 M0 20.48 C-0.22 5.2, 6.19 -0.43, 20.48 0 M0 20.48 C-0.26 7.11, 8.33 1.5, 20.48 0" stroke="#1e1e1e" stroke-width="2" fill="none"></path></g><g transform="translate(2098.9823435797084 853.4890594708742) rotate(0 34.549964904785156 25)"><text x="34.549964904785156" y="0" font-family="Virgil, Segoe UI Emoji" font-size="20px" fill="#1e1e1e" text-anchor="middle" style="white-space: pre;" direction="ltr" dominant-baseline="text-before-edge">Routes</text><text x="34.549964904785156" y="25" font-family="Virgil, Segoe UI Emoji" font-size="20px" fill="#1e1e1e" text-anchor="middle" style="white-space: pre;" direction="ltr" dominant-baseline="text-before-edge">/api/</text></g><g stroke-linecap="round" transform="translate(766.1136075037635 949.3842669423691) rotate(0 415.43314094437096 223.22228979995583)"><path d="M32 0 C326.13 1.26, 619.19 1.86, 798.87 0 M32 0 C302.93 -0.01, 573.98 -0.09, 798.87 0 M798.87 0 C818.88 1.21, 831.46 12.6, 830.87 32 M798.87 0 C822.35 -0.3, 829.99 12.56, 830.87 32 M830.87 32 C831.48 125.19, 829.7 217.21, 830.87 414.44 M830.87 32 C829.85 158.21, 829.91 284.05, 830.87 414.44 M830.87 414.44 C830.6 434.92, 818.26 445.69, 798.87 446.44 M830.87 414.44 C831.5 437.51, 818.45 447.08, 798.87 446.44 M798.87 446.44 C617.85 447.45, 436.31 446.26, 32 446.44 M798.87 446.44 C524.21 449.08, 249.66 449.33, 32 446.44 M32 446.44 C11.66 445.74, -1.93 434.39, 0 414.44 M32 446.44 C9 445.8, -1.93 434.55, 0 414.44 M0 414.44 C1.44 278.27, 1.05 144.23, 0 32 M0 414.44 C0.35 310.3, -0.4 205.44, 0 32 M0 32 C-1.52 12.66, 9.55 1.01, 32 0 M0 32 C1.2 12.39, 12.44 0.1, 32 0" stroke="#1e1e1e" stroke-width="2" fill="none"></path></g><g transform="translate(1413.1152462923246 963.2507700069542) rotate(0 18.61998748779297 12.5)"><text x="0" y="0" font-family="Virgil, Segoe UI Emoji" font-size="20px" fill="#1e1e1e" text-anchor="start" style="white-space: pre;" direction="ltr" dominant-baseline="text-before-edge">API</text></g><g stroke-linecap="round" transform="translate(758.9898737192005 362.9129760734472) rotate(0 414.093152114378 223.22228979995577)"><path d="M32 0 C302.55 1.33, 572.24 1.2, 796.19 0 M32 0 C225.37 1.24, 419.29 0.92, 796.19 0 M796.19 0 C817.73 -0.14, 829.65 12, 828.19 32 M796.19 0 C817.67 -2.29, 829.73 9.52, 828.19 32 M828.19 32 C827.05 120.08, 826.64 209.54, 828.19 414.44 M828.19 32 C830.35 172.1, 830.53 312.9, 828.19 414.44 M828.19 414.44 C827.97 433.98, 818.85 445, 796.19 446.44 M828.19 414.44 C826.55 437.18, 817.73 448.64, 796.19 446.44 M796.19 446.44 C511.58 447.07, 228.13 448.05, 32 446.44 M796.19 446.44 C625.88 443.98, 456.01 443.63, 32 446.44 M32 446.44 C10.8 446.42, -0.51 434.16, 0 414.44 M32 446.44 C8.64 448.15, -1.53 434.09, 0 414.44 M0 414.44 C-1.54 263.82, -0.77 113.28, 0 32 M0 414.44 C-1.88 320.74, -2.39 225.77, 0 32 M0 32 C1.04 11.95, 9.59 0.58, 32 0 M0 32 C-2.28 11.31, 8.73 1.09, 32 0" stroke="#1e1e1e" stroke-width="2" fill="none"></path></g><g stroke-linecap="round" transform="translate(1461.5352569246634 535.8285665330746) rotate(0 56.72225719158678 41.08621698588081)"><path d="M20.54 0 C49.41 -0.17, 74.35 1.1, 92.9 0 M20.54 0 C41.27 -0.97, 61.64 -0.35, 92.9 0 M92.9 0 C105.38 -0.61, 113.14 8.26, 113.44 20.54 M92.9 0 C104.37 1.98, 112.64 6.52, 113.44 20.54 M113.44 20.54 C113.02 33.66, 113.19 50.37, 113.44 61.63 M113.44 20.54 C112.98 34.07, 113 49.76, 113.44 61.63 M113.44 61.63 C112.38 75.04, 107.82 83.53, 92.9 82.17 M113.44 61.63 C115.46 73.19, 104.99 80.05, 92.9 82.17 M92.9 82.17 C66.55 80.17, 44.33 80.65, 20.54 82.17 M92.9 82.17 C73.42 81.38, 55.11 82.42, 20.54 82.17 M20.54 82.17 C5.77 83.56, -0.27 73.83, 0 61.63 M20.54 82.17 C6.32 83.84, -2.26 76.5, 0 61.63 M0 61.63 C-0.86 52.81, 2.05 40.87, 0 20.54 M0 61.63 C0.85 46.53, 0.74 28.49, 0 20.54 M0 20.54 C0.43 5.63, 5 -1.4, 20.54 0 M0 20.54 C-0.11 8.46, 9.06 0.94, 20.54 0" stroke="#1e1e1e" stroke-width="2" fill="none"></path></g><g transform="translate(1478.707549211465 551.9147835189555) rotate(0 39.549964904785156 25)"><text x="39.549964904785156" y="0" font-family="Virgil, Segoe UI Emoji" font-size="20px" fill="#1e1e1e" text-anchor="middle" style="white-space: pre;" direction="ltr" dominant-baseline="text-before-edge">Routes </text><text x="39.549964904785156" y="25" font-family="Virgil, Segoe UI Emoji" font-size="20px" fill="#1e1e1e" text-anchor="middle" style="white-space: pre;" direction="ltr" dominant-baseline="text-before-edge">/upload</text></g><g stroke-linecap="round"><g transform="translate(2915.90212007727 899.4622189967134) rotate(0 -136.26639682100222 1.0854429502969651)"><path d="M-0.08 0.46 C-45.52 0.89, -227.99 1.99, -273.55 2.19 M-1.58 -0.34 C-46.57 0.33, -226.46 3.23, -271.38 3.74" stroke="#1e1e1e" stroke-width="2" fill="none"></path></g><g transform="translate(2915.90212007727 899.4622189967134) rotate(0 -136.26639682100222 1.0854429502969651)"><path d="M-248.01 -5.14 C-252.47 -4.88, -258.42 -2.77, -271.38 3.74 M-248.01 -5.14 C-253.11 -2.22, -260.31 0.04, -271.38 3.74" stroke="#1e1e1e" stroke-width="2" fill="none"></path></g><g transform="translate(2915.90212007727 899.4622189967134) rotate(0 -136.26639682100222 1.0854429502969651)"><path d="M-247.77 11.96 C-252.23 8.41, -258.23 6.7, -271.38 3.74 M-247.77 11.96 C-252.89 10.5, -260.15 8.38, -271.38 3.74" stroke="#1e1e1e" stroke-width="2" fill="none"></path></g></g><mask></mask><g mask="url(#mask-7T78HjUWNQgSapCWI2Jr8)" stroke-linecap="round"><g transform="translate(2639.3139098669235 1028.8517423332935) rotate(0 138.4916523974889 0.4833231516796559)"><path d="M0.44 -0.11 C46.72 0.07, 231.42 0.54, 277.7 0.53 M-0.78 -1.22 C45.4 -0.83, 230.67 1.55, 277.13 1.84" stroke="#1e1e1e" stroke-width="2" fill="none"></path></g><g transform="translate(2639.3139098669235 1028.8517423332935) rotate(0 138.4916523974889 0.4833231516796559)"><path d="M253.55 10.16 C260.5 8.76, 267.06 6.98, 277.13 1.84 M253.55 10.16 C259.26 9.54, 263.58 6.53, 277.13 1.84" stroke="#1e1e1e" stroke-width="2" fill="none"></path></g><g transform="translate(2639.3139098669235 1028.8517423332935) rotate(0 138.4916523974889 0.4833231516796559)"><path d="M253.72 -6.94 C260.54 -3.19, 267.05 0.18, 277.13 1.84 M253.72 -6.94 C259.4 -4.08, 263.69 -3.59, 277.13 1.84" stroke="#1e1e1e" stroke-width="2" fill="none"></path></g></g><mask id="mask-7T78HjUWNQgSapCWI2Jr8"><rect x="0" y="0" fill="#fff" width="3016.2972146619013" height="1129.8183886366528"></rect><rect x="2718.725583321541" y="1011.8350654849731" fill="#000" width="118.15995788574219" height="35" opacity="1"></rect></mask><g transform="translate(2718.7255833215418 1011.8350654849731) rotate(0 59.0454298933596 17.327403113916546)"><text x="59.079978942871094" y="0" font-family="Virgil, Segoe UI Emoji" font-size="28px" fill="#1971c2" text-anchor="middle" style="white-space: pre;" direction="ltr" dominant-baseline="text-before-edge">CallBack</text></g><g transform="translate(2690.228821642334 865.2979324228089) rotate(0 51.259971618652344 12.5)"><text x="0" y="0" font-family="Virgil, Segoe UI Emoji" font-size="20px" fill="#1e1e1e" text-anchor="start" style="white-space: pre;" direction="ltr" dominant-baseline="text-before-edge">API REST</text></g><g transform="translate(2671.633590714135 985.7333724785059) rotate(0 51.259971618652344 12.5)"><text x="0" y="0" font-family="Virgil, Segoe UI Emoji" font-size="20px" fill="#1e1e1e" text-anchor="start" style="white-space: pre;" direction="ltr" dominant-baseline="text-before-edge">API REST</text></g><g transform="translate(1766.4611757514008 1010.4831556709388) rotate(0 51.259971618652344 12.5)"><text x="0" y="0" font-family="Virgil, Segoe UI Emoji" font-size="20px" fill="#1e1e1e" text-anchor="start" style="white-space: pre;" direction="ltr" dominant-baseline="text-before-edge">API REST</text></g><g transform="translate(1796.9667458071922 635.8057570510862) rotate(0 51.259971618652344 12.5)"><text x="0" y="0" font-family="Virgil, Segoe UI Emoji" font-size="20px" fill="#1e1e1e" text-anchor="start" style="white-space: pre;" direction="ltr" dominant-baseline="text-before-edge">API REST</text></g><g stroke-linecap="round" transform="translate(3425.8335759485412 709.1222627054224) rotate(0 73.22113312063857 57.53338255833759)"><path d="M28.77 0 C60.13 -0.33, 92.2 1.18, 117.68 0 M28.77 0 C47.67 0.67, 68.41 0.43, 117.68 0 M117.68 0 C138.35 0.12, 148.12 10.52, 146.44 28.77 M117.68 0 C138.9 2.12, 147.23 10.62, 146.44 28.77 M146.44 28.77 C145.1 45.42, 144.66 64.1, 146.44 86.3 M146.44 28.77 C145.89 46.06, 146.31 62.05, 146.44 86.3 M146.44 86.3 C145.7 106.52, 136.78 116.35, 117.68 115.07 M146.44 86.3 C147.91 103.86, 138.74 115.36, 117.68 115.07 M117.68 115.07 C92.69 115.54, 66.81 113.88, 28.77 115.07 M117.68 115.07 C84.41 114.6, 51.72 114.33, 28.77 115.07 M28.77 115.07 C11.11 116.14, 0.87 106.86, 0 86.3 M28.77 115.07 C10.7 117.34, 1.7 104.91, 0 86.3 M0 86.3 C1.31 67.38, -1.19 51.52, 0 28.77 M0 86.3 C0.89 74.83, 1.06 60.9, 0 28.77 M0 28.77 C0.12 9, 9.52 0.01, 28.77 0 M0 28.77 C0.59 9.28, 10.41 0.82, 28.77 0" stroke="#1e1e1e" stroke-width="2" fill="none"></path></g><g transform="translate(3472.234732262539 754.15564526376) rotate(0 26.819976806640625 12.5)"><text x="26.819976806640625" y="0" font-family="Virgil, Segoe UI Emoji" font-size="20px" fill="#1e1e1e" text-anchor="middle" style="white-space: pre;" direction="ltr" dominant-baseline="text-before-edge">Fetch</text></g><g transform="translate(3140.4876830708213 1192.8284146980254) rotate(0 75.62995910644531 12.5)"><text x="0" y="0" font-family="Virgil, Segoe UI Emoji" font-size="20px" fill="#2f9e44" text-anchor="start" style="white-space: pre;" direction="ltr" dominant-baseline="text-before-edge">ReactJS / IHM</text></g><g stroke-linecap="round" transform="translate(3215.4210352577297 707.2309808411213) rotate(0 73.22113312063857 57.53338255833762)"><path d="M28.77 0 C57.89 0.98, 87.48 0.88, 117.68 0 M28.77 0 C56.64 -0.08, 85.16 0.9, 117.68 0 M117.68 0 C136.47 -1.21, 145.02 9.5, 146.44 28.77 M117.68 0 C135.2 -1.35, 148.61 10.26, 146.44 28.77 M146.44 28.77 C148.24 44.51, 145.38 61.77, 146.44 86.3 M146.44 28.77 C145.49 49.02, 145.32 69.05, 146.44 86.3 M146.44 86.3 C146.88 104.22, 136.36 113.6, 117.68 115.07 M146.44 86.3 C145.28 104.61, 136.91 117.15, 117.68 115.07 M117.68 115.07 C96.64 115.93, 78.89 115.79, 28.77 115.07 M117.68 115.07 C83.8 115.79, 49.71 114.75, 28.77 115.07 M28.77 115.07 C9.43 116.84, -0.1 106.56, 0 86.3 M28.77 115.07 C9.86 114.6, -1.51 103.4, 0 86.3 M0 86.3 C-0.86 67, -0.54 44.89, 0 28.77 M0 86.3 C-0.27 64.37, 0.65 42.91, 0 28.77 M0 28.77 C1.36 11.24, 8.9 -1.43, 28.77 0 M0 28.77 C-1.8 11.23, 8.63 -0.86, 28.77 0" stroke="#1e1e1e" stroke-width="2" fill="none"></path></g><g transform="translate(3262.52218851997 752.264363399459) rotate(0 26.119979858398438 12.5)"><text x="26.119979858398438" y="0" font-family="Virgil, Segoe UI Emoji" font-size="20px" fill="#1e1e1e" text-anchor="middle" style="white-space: pre;" direction="ltr" dominant-baseline="text-before-edge">JSON</text></g><g stroke-linecap="round" transform="translate(591.9749083784277 522.4471039806174) rotate(0 67.59018347483749 63.22606330130429)"><path d="M31.61 0 C58.16 -0.73, 84.22 -2.23, 103.57 0 M31.61 0 C52.17 0.03, 74.01 0.14, 103.57 0 M103.57 0 C126.04 -1.5, 133.56 11.88, 135.18 31.61 M103.57 0 C122.6 2.25, 133.36 9.75, 135.18 31.61 M135.18 31.61 C136.86 54.2, 135.65 79.58, 135.18 94.84 M135.18 31.61 C134.1 55.29, 134.55 79.01, 135.18 94.84 M135.18 94.84 C136.57 114.2, 126.63 127.47, 103.57 126.45 M135.18 94.84 C137.17 115.89, 126.06 125.69, 103.57 126.45 M103.57 126.45 C89.48 128.19, 73.16 125.99, 31.61 126.45 M103.57 126.45 C85.11 127.48, 68.94 126.45, 31.61 126.45 M31.61 126.45 C8.84 128.43, -1.24 117.6, 0 94.84 M31.61 126.45 C12.29 124.88, -1.8 116.01, 0 94.84 M0 94.84 C-1.14 78.38, -0.88 63.44, 0 31.61 M0 94.84 C-0.75 78.66, 0.76 61.61, 0 31.61 M0 31.61 C1.38 10.56, 10.94 1.14, 31.61 0 M0 31.61 C1.31 10.21, 9.14 -0.07, 31.61 0" stroke="#1e1e1e" stroke-width="2" fill="none"></path></g><g transform="translate(625.6051232863706 560.6731672819217) rotate(0 33.95996856689453 25)"><text x="33.95996856689453" y="0" font-family="Virgil, Segoe UI Emoji" font-size="20px" fill="#1e1e1e" text-anchor="middle" style="white-space: pre;" direction="ltr" dominant-baseline="text-before-edge">AWS</text><text x="33.95996856689453" y="25" font-family="Virgil, Segoe UI Emoji" font-size="20px" fill="#1e1e1e" text-anchor="middle" style="white-space: pre;" direction="ltr" dominant-baseline="text-before-edge">Bucket</text></g><g stroke-linecap="round" transform="translate(583.7222953738394 1115.2626622150483) rotate(0 77.53962596148415 63.22606330130429)"><path d="M31.61 0 C65.66 1.81, 102.62 1.63, 123.47 0 M31.61 0 C54.91 -0.04, 77.49 -0.38, 123.47 0 M123.47 0 C142.91 -1.17, 156.18 12.09, 155.08 31.61 M123.47 0 C145.68 0.94, 157.14 9.43, 155.08 31.61 M155.08 31.61 C154.55 50.72, 157.1 69.06, 155.08 94.84 M155.08 31.61 C154.95 44.24, 155.58 57.67, 155.08 94.84 M155.08 94.84 C156.42 114.86, 144.01 126.83, 123.47 126.45 M155.08 94.84 C154.27 117.21, 144.04 125.2, 123.47 126.45 M123.47 126.45 C98.4 129.08, 68.08 128.26, 31.61 126.45 M123.47 126.45 C92.97 125.39, 62.83 125.25, 31.61 126.45 M31.61 126.45 C10.7 128.1, 1.85 115.07, 0 94.84 M31.61 126.45 C9.7 127.23, -1.97 117.21, 0 94.84 M0 94.84 C-0.34 70.1, 0.07 46.07, 0 31.61 M0 94.84 C0.9 71.55, -0.08 46.89, 0 31.61 M0 31.61 C-0.45 12.52, 10.84 1.39, 31.61 0 M0 31.61 C1.94 10.63, 11.47 0.07, 31.61 0" stroke="#1e1e1e" stroke-width="2" fill="none"></path></g><g transform="translate(596.2819790135462 1153.4887255163526) rotate(0 64.97994232177734 25)"><text x="64.97994232177734" y="0" font-family="Virgil, Segoe UI Emoji" font-size="20px" fill="#1e1e1e" text-anchor="middle" style="white-space: pre;" direction="ltr" dominant-baseline="text-before-edge">AWS</text><text x="64.97994232177734" y="25" font-family="Virgil, Segoe UI Emoji" font-size="20px" fill="#1e1e1e" text-anchor="middle" style="white-space: pre;" direction="ltr" dominant-baseline="text-before-edge">Recoknization</text></g><g stroke-linecap="round" transform="translate(786.2170527215828 455.7624077211527) rotate(0 73.22113312063857 57.53338255833762)"><path d="M28.77 0 C57.08 -2.37, 85.15 0.98, 117.68 0 M28.77 0 C48.65 0.49, 68.96 -0.37, 117.68 0 M117.68 0 C138.2 -0.45, 147.15 9.81, 146.44 28.77 M117.68 0 C136.27 0.48, 146.48 10.85, 146.44 28.77 M146.44 28.77 C145.51 46.72, 146.7 68.39, 146.44 86.3 M146.44 28.77 C145.42 46.28, 145.97 65.39, 146.44 86.3 M146.44 86.3 C144.61 105.13, 137.99 114.52, 117.68 115.07 M146.44 86.3 C145.4 104.38, 136.39 113.79, 117.68 115.07 M117.68 115.07 C93.32 113.96, 63.33 115.7, 28.77 115.07 M117.68 115.07 C93.24 115.71, 70.09 115.95, 28.77 115.07 M28.77 115.07 C11.22 115.57, 1.66 105.65, 0 86.3 M28.77 115.07 C8.24 113.8, -0.28 106.36, 0 86.3 M0 86.3 C0.68 72.39, 1.1 61.95, 0 28.77 M0 86.3 C-0.36 71.18, -0.29 55.19, 0 28.77 M0 28.77 C-1.69 9.26, 9.8 -0.22, 28.77 0 M0 28.77 C0.68 7.97, 8.47 -0.1, 28.77 0" stroke="#1e1e1e" stroke-width="2" fill="none"></path></g><g transform="translate(832.6182090355808 500.79579027949035) rotate(0 26.819976806640625 12.5)"><text x="26.819976806640625" y="0" font-family="Virgil, Segoe UI Emoji" font-size="20px" fill="#1e1e1e" text-anchor="middle" style="white-space: pre;" direction="ltr" dominant-baseline="text-before-edge">Fetch</text></g><g stroke-linecap="round" transform="translate(786.9158265732423 1045.4350374628925) rotate(0 73.22113312063857 57.53338255833762)"><path d="M28.77 0 C49.85 -2.46, 68.92 0.24, 117.68 0 M28.77 0 C59.5 0.47, 90.79 0.85, 117.68 0 M117.68 0 C138.44 0.29, 144.87 10.17, 146.44 28.77 M117.68 0 C134.7 -0.28, 144.77 10.45, 146.44 28.77 M146.44 28.77 C147.85 42.09, 145.42 54.81, 146.44 86.3 M146.44 28.77 C146.12 45.79, 146.78 62.18, 146.44 86.3 M146.44 86.3 C145.97 106.86, 138.66 114.27, 117.68 115.07 M146.44 86.3 C146.26 104.53, 135.41 114.28, 117.68 115.07 M117.68 115.07 C87.37 113.51, 53.86 115.51, 28.77 115.07 M117.68 115.07 C87.85 114.54, 56.61 114.85, 28.77 115.07 M28.77 115.07 C10.75 113.75, -1.18 104.7, 0 86.3 M28.77 115.07 C11.19 115.5, 1.55 106.74, 0 86.3 M0 86.3 C-1.6 64.17, 1.62 45.99, 0 28.77 M0 86.3 C1.02 70.91, -0.32 56.5, 0 28.77 M0 28.77 C-1.88 7.76, 8.29 0.84, 28.77 0 M0 28.77 C-1.18 7.76, 8.3 0.75, 28.77 0" stroke="#1e1e1e" stroke-width="2" fill="none"></path></g><g transform="translate(833.3169828872402 1090.4684200212303) rotate(0 26.819976806640625 12.5)"><text x="26.819976806640625" y="0" font-family="Virgil, Segoe UI Emoji" font-size="20px" fill="#1e1e1e" text-anchor="middle" style="white-space: pre;" direction="ltr" dominant-baseline="text-before-edge">Fetch</text></g><g stroke-linecap="round" transform="translate(401.82570414124297 261.26953510945185) rotate(0 637.2826129783008 304.7439512822749)"><path d="M32 0 C310.23 -3.8, 587.4 -4.52, 1242.57 0 M32 0 C280.42 3.72, 528.76 3.75, 1242.57 0 M1242.57 0 C1262.64 1.23, 1273.24 10.08, 1274.57 32 M1242.57 0 C1262.88 1.41, 1276.71 12.95, 1274.57 32 M1274.57 32 C1274 147.22, 1274.41 262.15, 1274.57 577.49 M1274.57 32 C1276.18 171.03, 1276.07 310.71, 1274.57 577.49 M1274.57 577.49 C1276.43 597.48, 1262.28 611.29, 1242.57 609.49 M1274.57 577.49 C1275.29 600.13, 1262.45 607.58, 1242.57 609.49 M1242.57 609.49 C761.88 608.66, 280.86 607.84, 32 609.49 M1242.57 609.49 C947.54 613.47, 652.27 613.5, 32 609.49 M32 609.49 C11.5 608.63, 1.43 600.08, 0 577.49 M32 609.49 C12.89 608.05, -1.52 598.56, 0 577.49 M0 577.49 C-0.26 395.07, -0.39 210.59, 0 32 M0 577.49 C-1.19 436.94, -1.47 296.51, 0 32 M0 32 C-0.61 12.2, 11.73 0.33, 32 0 M0 32 C-1.86 12.59, 10.38 0.4, 32 0" stroke="#1971c2" stroke-width="2" fill="none"></path></g><g transform="translate(1009.4575228410267 268.2923978830332) rotate(0 50.56797790527344 17.5)"><text x="0" y="0" font-family="Virgil, Segoe UI Emoji" font-size="28px" fill="#1971c2" text-anchor="start" style="white-space: pre;" direction="ltr" dominant-baseline="text-before-edge">Private</text></g><g stroke-linecap="round" transform="translate(1298.4112995831385 592.6875450021172) rotate(0 73.22113312063851 57.53338255833762)"><path d="M28.77 0 C47.41 -0.66, 64.12 -1.08, 117.68 0 M28.77 0 C56.69 1.56, 83.71 1.29, 117.68 0 M117.68 0 C136.97 1.35, 147.25 8.45, 146.44 28.77 M117.68 0 C136.55 1.53, 145.15 11.37, 146.44 28.77 M146.44 28.77 C145.82 48.51, 145.69 70.87, 146.44 86.3 M146.44 28.77 C146.31 41.87, 146.31 56.03, 146.44 86.3 M146.44 86.3 C144.94 104.42, 137.44 114.9, 117.68 115.07 M146.44 86.3 C145.51 107.3, 136.3 115.13, 117.68 115.07 M117.68 115.07 C89.55 116.5, 58.88 116.66, 28.77 115.07 M117.68 115.07 C99.37 113.73, 79.85 113.43, 28.77 115.07 M28.77 115.07 C9.32 114.59, 0.29 105.34, 0 86.3 M28.77 115.07 C9.45 115.23, -1.04 106.84, 0 86.3 M0 86.3 C-1.65 68.22, 0.71 49.33, 0 28.77 M0 86.3 C0.73 62.94, 0.63 41.12, 0 28.77 M0 28.77 C1.82 10.29, 9.09 -1.22, 28.77 0 M0 28.77 C0.42 9.26, 10.16 -1, 28.77 0" stroke="#1e1e1e" stroke-width="2" fill="none"></path></g><g transform="translate(1316.6924684093435 625.2209275604548) rotate(0 54.93996429443354 25)"><text x="54.939964294433594" y="0" font-family="Virgil, Segoe UI Emoji" font-size="20px" fill="#1e1e1e" text-anchor="middle" style="white-space: pre;" direction="ltr" dominant-baseline="text-before-edge">Request / </text><text x="54.939964294433594" y="25" font-family="Virgil, Segoe UI Emoji" font-size="20px" fill="#1e1e1e" text-anchor="middle" style="white-space: pre;" direction="ltr" dominant-baseline="text-before-edge">Response</text></g><g stroke-linecap="round" transform="translate(794.0510561677738 672.813347201775) rotate(0 73.2211331206386 57.53338255833762)"><path d="M28.77 0 C61.42 1, 92.09 2.58, 117.68 0 M28.77 0 C59.71 0.14, 91.25 0.06, 117.68 0 M117.68 0 C138.03 -1.39, 147.36 10.53, 146.44 28.77 M117.68 0 C134.81 -1.04, 145.56 9.45, 146.44 28.77 M146.44 28.77 C148.52 50.48, 147.74 69.66, 146.44 86.3 M146.44 28.77 C146 49.51, 146.11 71.31, 146.44 86.3 M146.44 86.3 C147.43 106.48, 134.95 116.08, 117.68 115.07 M146.44 86.3 C147.92 103.25, 137.01 115.29, 117.68 115.07 M117.68 115.07 C86.82 113.18, 56.17 113.11, 28.77 115.07 M117.68 115.07 C84.57 114.35, 50.52 115.36, 28.77 115.07 M28.77 115.07 C10.85 115.99, -0.81 107.47, 0 86.3 M28.77 115.07 C8.45 114.57, -0.42 104.4, 0 86.3 M0 86.3 C-2.21 74.76, 0.68 63.08, 0 28.77 M0 86.3 C0.8 73.26, -0.07 59.75, 0 28.77 M0 28.77 C-0.42 9.4, 10.94 0.92, 28.77 0 M0 28.77 C0.9 11.45, 9.58 0.93, 28.77 0" stroke="#1e1e1e" stroke-width="2" fill="none"></path></g><g transform="translate(800.052241473471 717.8467297601126) rotate(0 67.21994781494143 12.5)"><text x="67.2199478149414" y="0" font-family="Virgil, Segoe UI Emoji" font-size="20px" fill="#1e1e1e" text-anchor="middle" style="white-space: pre;" direction="ltr" dominant-baseline="text-before-edge">Error Handling</text></g><g stroke-linecap="round" transform="translate(801.1204664990914 1265.6663163200374) rotate(0 73.22113312063857 57.53338255833762)"><path d="M28.77 0 C45.26 -1.05, 65.81 0.58, 117.68 0 M28.77 0 C58.91 0.84, 89.61 0.39, 117.68 0 M117.68 0 C137.95 1.85, 148.44 8.86, 146.44 28.77 M117.68 0 C136.74 -1.27, 145.25 7.78, 146.44 28.77 M146.44 28.77 C147.65 44.97, 145.93 60.35, 146.44 86.3 M146.44 28.77 C146.43 51.48, 146.69 73.25, 146.44 86.3 M146.44 86.3 C146.38 104.55, 134.88 113.9, 117.68 115.07 M146.44 86.3 C147.93 103.74, 137.72 116.43, 117.68 115.07 M117.68 115.07 C93.14 115.01, 66.87 115.48, 28.77 115.07 M117.68 115.07 C97.34 115.18, 78.78 116.26, 28.77 115.07 M28.77 115.07 C10.98 113.74, 1.89 104.74, 0 86.3 M28.77 115.07 C9.42 113.64, 1.47 105.07, 0 86.3 M0 86.3 C0.69 67.81, -2.08 44.57, 0 28.77 M0 86.3 C-1.01 67.73, -0.05 50.76, 0 28.77 M0 28.77 C-1.97 11.48, 7.94 -0.58, 28.77 0 M0 28.77 C2.21 10.52, 11.72 2, 28.77 0" stroke="#1e1e1e" stroke-width="2" fill="none"></path></g><g transform="translate(807.1216518047886 1310.6996988783749) rotate(0 67.2199478149414 12.5)"><text x="67.2199478149414" y="0" font-family="Virgil, Segoe UI Emoji" font-size="20px" fill="#1e1e1e" text-anchor="middle" style="white-space: pre;" direction="ltr" dominant-baseline="text-before-edge">Error Handling</text></g><g stroke-linecap="round" transform="translate(3265.470360438928 880.3107227042226) rotate(0 73.22113312063857 57.53338255833762)"><path d="M28.77 0 C63.52 -1.92, 93.8 -2.31, 117.68 0 M28.77 0 C59.66 0.03, 89.38 -0.05, 117.68 0 M117.68 0 C135.26 -1.47, 145.9 9.15, 146.44 28.77 M117.68 0 C137.13 0.73, 144.62 10.68, 146.44 28.77 M146.44 28.77 C146.7 51.43, 146.53 74.29, 146.44 86.3 M146.44 28.77 C146.64 44.85, 145.88 62.12, 146.44 86.3 M146.44 86.3 C147.32 104.26, 137.58 115.84, 117.68 115.07 M146.44 86.3 C145.85 103.93, 137.59 115.64, 117.68 115.07 M117.68 115.07 C95.99 115.25, 68.91 113.98, 28.77 115.07 M117.68 115.07 C96.41 114.36, 74.72 114.57, 28.77 115.07 M28.77 115.07 C8.11 114.89, 0.66 104.02, 0 86.3 M28.77 115.07 C7.67 114.06, -1.46 103.92, 0 86.3 M0 86.3 C-2.24 73.78, -1.55 62.25, 0 28.77 M0 86.3 C0.68 74.18, -0.47 60.95, 0 28.77 M0 28.77 C-1.57 10, 10.92 1.83, 28.77 0 M0 28.77 C-1.77 7.97, 7.97 1.01, 28.77 0" stroke="#1e1e1e" stroke-width="2" fill="none"></path></g><g transform="translate(3271.471545744625 925.3441052625602) rotate(0 67.2199478149414 12.5)"><text x="67.2199478149414" y="0" font-family="Virgil, Segoe UI Emoji" font-size="20px" fill="#1e1e1e" text-anchor="middle" style="white-space: pre;" direction="ltr" dominant-baseline="text-before-edge">Error Handling</text></g><g stroke-linecap="round" transform="translate(1304.840680995573 1129.0026868039827) rotate(0 73.22113312063851 57.53338255833762)"><path d="M28.77 0 C53.76 -1.39, 78.03 1.95, 117.68 0 M28.77 0 C60.68 1.81, 93.84 1.71, 117.68 0 M117.68 0 C136.8 -0.75, 146.32 8.13, 146.44 28.77 M117.68 0 C134.94 -1.5, 147.49 8.64, 146.44 28.77 M146.44 28.77 C146.19 50.53, 144.8 72.86, 146.44 86.3 M146.44 28.77 C147.45 47.45, 147.53 67.59, 146.44 86.3 M146.44 86.3 C147.56 104.81, 136.18 115.29, 117.68 115.07 M146.44 86.3 C144.99 103.64, 136.41 114.32, 117.68 115.07 M117.68 115.07 C90.64 115.08, 59.94 114.25, 28.77 115.07 M117.68 115.07 C91.47 114.71, 64.33 115.53, 28.77 115.07 M28.77 115.07 C8.84 116.28, 1.58 105.3, 0 86.3 M28.77 115.07 C8.22 113.53, -0.21 107.01, 0 86.3 M0 86.3 C0.17 66.3, -0.46 44.03, 0 28.77 M0 86.3 C-0.46 71.58, -0.04 58.2, 0 28.77 M0 28.77 C0.39 9.84, 11.08 -0.95, 28.77 0 M0 28.77 C-1.23 10.61, 9.58 -0.45, 28.77 0" stroke="#1e1e1e" stroke-width="2" fill="none"></path></g><g transform="translate(1323.121849821778 1161.5360693623202) rotate(0 54.93996429443354 25)"><text x="54.939964294433594" y="0" font-family="Virgil, Segoe UI Emoji" font-size="20px" fill="#1e1e1e" text-anchor="middle" style="white-space: pre;" direction="ltr" dominant-baseline="text-before-edge">Request / </text><text x="54.939964294433594" y="25" font-family="Virgil, Segoe UI Emoji" font-size="20px" fill="#1e1e1e" text-anchor="middle" style="white-space: pre;" direction="ltr" dominant-baseline="text-before-edge">Response</text></g><g stroke-linecap="round" transform="translate(968.8371354704941 1137.5034345357167) rotate(0 73.22113312063857 57.53338255833762)"><path d="M28.77 0 C61.15 -0.55, 92.7 -1.24, 117.68 0 M28.77 0 C58.21 0.61, 87.18 0.85, 117.68 0 M117.68 0 C134.96 -0.52, 145.74 11.59, 146.44 28.77 M117.68 0 C138.66 -0.92, 148.08 8.76, 146.44 28.77 M146.44 28.77 C146.29 41.22, 144.9 53.98, 146.44 86.3 M146.44 28.77 C147.58 41.78, 147.72 57.17, 146.44 86.3 M146.44 86.3 C148.2 107.24, 136.16 114.49, 117.68 115.07 M146.44 86.3 C146.33 106.38, 137.99 117.12, 117.68 115.07 M117.68 115.07 C85.57 116.64, 54.49 114.73, 28.77 115.07 M117.68 115.07 C89.09 115.44, 61.18 116.27, 28.77 115.07 M28.77 115.07 C7.73 114.18, 1.97 104.05, 0 86.3 M28.77 115.07 C8.01 115.64, 0.42 106.27, 0 86.3 M0 86.3 C1.91 73.66, -0.12 63.84, 0 28.77 M0 86.3 C-1.26 66.9, -0.54 47.06, 0 28.77 M0 28.77 C-0.33 10.99, 10.38 -0.59, 28.77 0 M0 28.77 C1.11 11.62, 10.92 0.29, 28.77 0" stroke="#1e1e1e" stroke-width="2" fill="none"></path></g><g transform="translate(1013.5182905637889 1182.5368170940542) rotate(0 28.53997802734375 12.5)"><text x="28.53997802734375" y="0" font-family="Virgil, Segoe UI Emoji" font-size="20px" fill="#1e1e1e" text-anchor="middle" style="white-space: pre;" direction="ltr" dominant-baseline="text-before-edge">Cache</text></g><g stroke-linecap="round" transform="translate(975.3712488878363 556.421179080217) rotate(0 73.22113312063857 57.53338255833762)"><path d="M28.77 0 C60.92 -0.45, 90.18 -0.08, 117.68 0 M28.77 0 C49.97 -1.27, 71.87 0.38, 117.68 0 M117.68 0 C135.5 -0.44, 144.91 9.42, 146.44 28.77 M117.68 0 C134.98 -1.78, 147.12 10.46, 146.44 28.77 M146.44 28.77 C145.15 41.78, 144.69 59.01, 146.44 86.3 M146.44 28.77 C146.63 42.44, 147.41 57.96, 146.44 86.3 M146.44 86.3 C148.27 104.79, 136.86 115.19, 117.68 115.07 M146.44 86.3 C147.74 104.36, 135.87 113.14, 117.68 115.07 M117.68 115.07 C84.28 116.83, 52.59 115.37, 28.77 115.07 M117.68 115.07 C87.55 114.39, 57.76 113.89, 28.77 115.07 M28.77 115.07 C9.23 115.95, -0.62 104.95, 0 86.3 M28.77 115.07 C8.46 114.34, -2.23 105.48, 0 86.3 M0 86.3 C-1.67 71.02, -0.54 58.89, 0 28.77 M0 86.3 C0.91 74.43, 0.26 60.45, 0 28.77 M0 28.77 C-1.44 8.26, 10.54 1.6, 28.77 0 M0 28.77 C-1.31 11.8, 8.75 0.36, 28.77 0" stroke="#1e1e1e" stroke-width="2" fill="none"></path></g><g transform="translate(1020.0524039811311 601.4545616385547) rotate(0 28.53997802734375 12.5)"><text x="28.53997802734375" y="0" font-family="Virgil, Segoe UI Emoji" font-size="20px" fill="#1e1e1e" text-anchor="middle" style="white-space: pre;" direction="ltr" dominant-baseline="text-before-edge">Cache</text></g><g stroke-linecap="round" transform="translate(2423.1748478523987 818.5479320318404) rotate(0 73.22113312063857 57.53338255833762)"><path d="M28.77 0 C57.82 -1.61, 89.76 -1.89, 117.68 0 M28.77 0 C56.76 1, 86.04 -0.64, 117.68 0 M117.68 0 C135.44 -1.85, 146.56 8.4, 146.44 28.77 M117.68 0 C135.84 1.23, 148.65 11.23, 146.44 28.77 M146.44 28.77 C147.18 47.82, 148.05 61.13, 146.44 86.3 M146.44 28.77 C146.77 42.58, 147.13 56.95, 146.44 86.3 M146.44 86.3 C147.99 106.5, 137.51 115.95, 117.68 115.07 M146.44 86.3 C145.84 103.7, 137.47 113.6, 117.68 115.07 M117.68 115.07 C85.4 116.25, 55.3 114.98, 28.77 115.07 M117.68 115.07 C86.71 114.24, 54.8 114.72, 28.77 115.07 M28.77 115.07 C7.61 116.86, -1.61 104.33, 0 86.3 M28.77 115.07 C9.9 114.79, 0.31 103.28, 0 86.3 M0 86.3 C-1.23 72.3, -2.28 55.45, 0 28.77 M0 86.3 C-0.72 66.14, -1.35 44.8, 0 28.77 M0 28.77 C1.98 10.7, 11.23 -1.75, 28.77 0 M0 28.77 C0.93 10.4, 9.63 -1.37, 28.77 0" stroke="#1e1e1e" stroke-width="2" fill="none"></path></g><g transform="translate(2452.3160249183497 851.0813145901781) rotate(0 44.0799560546875 25)"><text x="44.0799560546875" y="0" font-family="Virgil, Segoe UI Emoji" font-size="20px" fill="#1e1e1e" text-anchor="middle" style="white-space: pre;" direction="ltr" dominant-baseline="text-before-edge">Security </text><text x="44.0799560546875" y="25" font-family="Virgil, Segoe UI Emoji" font-size="20px" fill="#1e1e1e" text-anchor="middle" style="white-space: pre;" direction="ltr" dominant-baseline="text-before-edge">Service</text></g><g stroke-linecap="round" transform="translate(2234.465230341577 824.8900367735168) rotate(0 73.22113312063857 57.53338255833762)"><path d="M28.77 0 C58.07 1.18, 86.28 1.72, 117.68 0 M28.77 0 C62.51 -1.28, 95.01 0.06, 117.68 0 M117.68 0 C138 -1.21, 146.47 8.9, 146.44 28.77 M117.68 0 C138.66 -1.37, 148.38 7.58, 146.44 28.77 M146.44 28.77 C147.02 40.42, 146.56 54.77, 146.44 86.3 M146.44 28.77 C145.89 44.5, 145.72 59.59, 146.44 86.3 M146.44 86.3 C146.57 105.61, 138.64 113.32, 117.68 115.07 M146.44 86.3 C144.18 103.71, 135.25 113.44, 117.68 115.07 M117.68 115.07 C86.53 113.36, 57.13 113.73, 28.77 115.07 M117.68 115.07 C89.6 115.5, 60.58 115.15, 28.77 115.07 M28.77 115.07 C8.87 115.21, -0.55 104.87, 0 86.3 M28.77 115.07 C9.12 117.32, 1.31 103.93, 0 86.3 M0 86.3 C1.23 72.82, -0.81 58.29, 0 28.77 M0 86.3 C0.71 63.75, 1.02 40.27, 0 28.77 M0 28.77 C0.44 8.43, 11.44 0.94, 28.77 0 M0 28.77 C-1.52 8.53, 11.8 1.36, 28.77 0" stroke="#1e1e1e" stroke-width="2" fill="none"></path></g><g transform="translate(2240.816429380184 857.4234193318545) rotate(0 66.86993408203125 25)"><text x="66.86993408203125" y="0" font-family="Virgil, Segoe UI Emoji" font-size="20px" fill="#1e1e1e" text-anchor="middle" style="white-space: pre;" direction="ltr" dominant-baseline="text-before-edge">Observability </text><text x="66.86993408203125" y="25" font-family="Virgil, Segoe UI Emoji" font-size="20px" fill="#1e1e1e" text-anchor="middle" style="white-space: pre;" direction="ltr" dominant-baseline="text-before-edge">policy</text></g><g stroke-linecap="round" transform="translate(346.52138710488475 10) rotate(0 140.39616180209543 119.74316642187156)"><path d="M140.69 -0.85 C155.12 -2.91, 171.66 1.79, 186.11 6.18 C200.57 10.57, 215.41 17.44, 227.43 25.49 C239.44 33.55, 250.03 43.5, 258.21 54.51 C266.4 65.52, 272.93 78.86, 276.56 91.54 C280.18 104.22, 281.37 117.81, 279.97 130.57 C278.57 143.32, 274.21 156.17, 268.16 168.08 C262.12 179.99, 253.99 192.6, 243.68 202.02 C233.37 211.44, 219.69 218.75, 206.29 224.62 C192.88 230.48, 178.39 235.15, 163.25 237.23 C148.12 239.31, 130.43 239.32, 115.48 237.09 C100.53 234.86, 86.84 230.02, 73.56 223.85 C60.27 217.68, 46 209.46, 35.76 200.04 C25.52 190.63, 17.99 179.23, 12.13 167.35 C6.26 155.48, 1.73 141.89, 0.57 128.77 C-0.58 115.66, 1.51 101.33, 5.18 88.65 C8.85 75.97, 14.35 63.48, 22.61 52.68 C30.87 41.88, 42.6 31.55, 54.73 23.86 C66.85 16.18, 78.58 10.33, 95.38 6.55 C112.17 2.78, 143.17 1.41, 155.5 1.21 C167.83 1.02, 169.67 3.45, 169.37 5.39 M147.87 -1.21 C162.3 -2.66, 177.97 2.8, 192.21 7.72 C206.45 12.64, 221.9 19.68, 233.32 28.32 C244.73 36.95, 253.41 47.97, 260.7 59.55 C267.98 71.13, 274.12 85.21, 277.03 97.8 C279.93 110.38, 279.99 122.65, 278.12 135.04 C276.25 147.43, 272.23 160.46, 265.81 172.16 C259.39 183.85, 250.54 196.11, 239.6 205.21 C228.65 214.31, 214.14 221.12, 200.15 226.75 C186.15 232.38, 170.67 237.29, 155.64 239.01 C140.62 240.72, 124.94 239.93, 109.99 237.04 C95.03 234.15, 79.06 228.29, 65.93 221.67 C52.8 215.04, 40.58 206.97, 31.2 197.3 C21.82 187.64, 14.6 176.17, 9.65 163.65 C4.69 151.13, 1.98 135.19, 1.48 122.19 C0.98 109.2, 2.16 97.96, 6.65 85.69 C11.15 73.41, 19.7 59.45, 28.44 48.53 C37.19 37.6, 46.88 27.49, 59.13 20.13 C71.38 12.78, 87.12 7.72, 101.94 4.39 C116.76 1.05, 140.47 0.57, 148.07 0.14 C155.67 -0.3, 147.97 -0.43, 147.54 1.78" stroke="#1971c2" stroke-width="2" fill="none"></path></g><g transform="translate(395.96052504337354 77.07196144421687) rotate(0 91.18194580078125 52.5)"><text x="91.18194580078125" y="0" font-family="Virgil, Segoe UI Emoji" font-size="28px" fill="#1971c2" text-anchor="middle" style="white-space: pre;" direction="ltr" dominant-baseline="text-before-edge">Database</text><text x="91.18194580078125" y="35" font-family="Virgil, Segoe UI Emoji" font-size="28px" fill="#1971c2" text-anchor="middle" style="white-space: pre;" direction="ltr" dominant-baseline="text-before-edge">Short</text><text x="91.18194580078125" y="70" font-family="Virgil, Segoe UI Emoji" font-size="28px" fill="#1971c2" text-anchor="middle" style="white-space: pre;" direction="ltr" dominant-baseline="text-before-edge">Rethink/Redis</text></g><g stroke-linecap="round" transform="translate(954.7390439208806 959.8314066532987) rotate(0 73.22113312063857 57.53338255833762)"><path d="M28.77 0 C55.08 -1.31, 80.74 -0.01, 117.68 0 M28.77 0 C56.2 -0.2, 84.54 -1.04, 117.68 0 M117.68 0 C138.59 1.61, 147.29 9.29, 146.44 28.77 M117.68 0 C136.61 -0.34, 148.11 9.86, 146.44 28.77 M146.44 28.77 C147.92 46.19, 148.69 58.89, 146.44 86.3 M146.44 28.77 C146.13 40.49, 146.44 52.47, 146.44 86.3 M146.44 86.3 C144.8 103.53, 137.45 115.99, 117.68 115.07 M146.44 86.3 C147.13 107.43, 136.07 114.61, 117.68 115.07 M117.68 115.07 C100.91 114.74, 82.15 114.08, 28.77 115.07 M117.68 115.07 C98.06 116.24, 78.12 115.11, 28.77 115.07 M28.77 115.07 C11.51 114.47, -1.29 104.01, 0 86.3 M28.77 115.07 C8.86 113.84, 0.94 106.12, 0 86.3 M0 86.3 C-1.54 65.35, -1.97 40.84, 0 28.77 M0 86.3 C0.35 70.64, 0.62 56.78, 0 28.77 M0 28.77 C1.83 11.58, 11.38 0.82, 28.77 0 M0 28.77 C0.65 10.77, 10.61 -0.66, 28.77 0" stroke="#1e1e1e" stroke-width="2" fill="none"></path></g><g transform="translate(965.2302270903473 1004.8647892116363) rotate(0 62.729949951171875 12.5)"><text x="62.729949951171875" y="0" font-family="Virgil, Segoe UI Emoji" font-size="20px" fill="#1e1e1e" text-anchor="middle" style="white-space: pre;" direction="ltr" dominant-baseline="text-before-edge">Model / type</text></g><g stroke-linecap="round" transform="translate(3918.551875624474 776.993201057379) rotate(0 132.9572802312391 105.64550072901)"><path d="M166.25 26.5 C185.45 41.01, 206.02 57.83, 232.66 79.5 M166.25 26.5 C184.11 41.16, 201.77 54.07, 232.66 79.5 M232.66 79.5 C266.94 105.03, 266.16 104.28, 232.66 132.5 M232.66 79.5 C264.5 108.29, 264.03 106.38, 232.66 132.5 M232.66 132.5 C207.72 151.29, 181.43 172.85, 166.25 184.79 M232.66 132.5 C216.66 144.8, 202.54 155.58, 166.25 184.79 M166.25 184.79 C133.37 211.83, 131.35 209.46, 99.75 184.79 M166.25 184.79 C134.73 212.36, 133.09 212.25, 99.75 184.79 M99.75 184.79 C72.87 166.33, 47.09 144.58, 33.25 132.5 M99.75 184.79 C79.82 169.56, 61.9 154.2, 33.25 132.5 M33.25 132.5 C1.12 105.09, -0.86 105.08, 33.25 79.5 M33.25 132.5 C-2.08 104.09, 1.31 106.65, 33.25 79.5 M33.25 79.5 C54.97 60.49, 78.53 45.29, 99.75 26.5 M33.25 79.5 C60.44 57.84, 86.84 36.23, 99.75 26.5 M99.75 26.5 C132.71 -0.74, 132.86 0.59, 166.25 26.5 M99.75 26.5 C133.34 1.6, 133.68 -1.25, 166.25 26.5" stroke="#1971c2" stroke-width="2" fill="none"></path></g><g transform="translate(4020.2545300223205 865.315951421884) rotate(0 31.275985717773438 17.5)"><text x="31.275985717773438" y="0" font-family="Virgil, Segoe UI Emoji" font-size="28px" fill="#1971c2" text-anchor="middle" style="white-space: pre;" direction="ltr" dominant-baseline="text-before-edge">User</text></g><g mask="url(#mask-w0Ci-q24tIHMpT8MV1Tpf)" stroke-linecap="round"><g transform="translate(4038.2671808218406 773.4503501654157) rotate(0 -703.691834328477 -183.74386591513303)"><path d="M-1.19 1.12 C-35.28 -60.26, 29.14 -341.43, -205.31 -367.3 C-439.76 -393.17, -1207.39 -189.75, -1407.88 -154.12 M0.39 0.66 C-33.84 -60.58, 28.36 -340.06, -206.52 -365.66 C-441.4 -391.27, -1208.59 -188.53, -1408.9 -152.95" stroke="#1971c2" stroke-width="2" fill="none"></path></g><g transform="translate(4038.2671808218406 773.4503501654157) rotate(0 -703.691834328477 -183.74386591513303)"><path d="M-1387.78 -166.33 C-1390.81 -164.2, -1397.36 -161.03, -1408.9 -152.95 M-1387.78 -166.33 C-1394.42 -162.58, -1398.83 -159.28, -1408.9 -152.95" stroke="#1971c2" stroke-width="2" fill="none"></path></g><g transform="translate(4038.2671808218406 773.4503501654157) rotate(0 -703.691834328477 -183.74386591513303)"><path d="M-1384.12 -149.63 C-1388.15 -151.48, -1395.56 -152.27, -1408.9 -152.95 M-1384.12 -149.63 C-1391.66 -150.49, -1397.08 -151.8, -1408.9 -152.95" stroke="#1971c2" stroke-width="2" fill="none"></path></g></g><mask id="mask-w0Ci-q24tIHMpT8MV1Tpf"><rect x="0" y="0" fill="#fff" width="5545.650849478794" height="1240.9380819956818"></rect><rect x="3723.4533402400066" y="388.4626183351496" fill="#000" width="219.9959259033203" height="35" opacity="1"></rect></mask><g transform="translate(3723.4533402400057 388.4626183351496) rotate(0 -389.44050060066434 200.76268669074318)"><text x="109.99796295166016" y="0" font-family="Virgil, Segoe UI Emoji" font-size="28px" fill="#1971c2" text-anchor="middle" style="white-space: pre;" direction="ltr" dominant-baseline="text-before-edge">HTTPs Request</text></g><g stroke-linecap="round" transform="translate(3076.6962326727457 1001.9876395204176) rotate(0 76.36941907608411 58.003075688945444)"><path d="M29 0 C58.95 2.02, 90.61 -1.04, 123.74 0 M29 0 C57.71 0.04, 85.24 -0.48, 123.74 0 M123.74 0 C144.69 -1.94, 154.2 9.99, 152.74 29 M123.74 0 C141.16 -1.2, 152.1 8.54, 152.74 29 M152.74 29 C151.87 49.45, 152.61 69.77, 152.74 87 M152.74 29 C153.16 51.87, 151.62 74.57, 152.74 87 M152.74 87 C151.5 105.5, 142.94 115.63, 123.74 116.01 M152.74 87 C153.55 108.57, 140.81 116.31, 123.74 116.01 M123.74 116.01 C96.71 116.74, 72 117.75, 29 116.01 M123.74 116.01 C88.89 115.71, 53.77 115.25, 29 116.01 M29 116.01 C11.59 116.97, 0.62 105.28, 0 87 M29 116.01 C10.16 117.28, 1.81 105.05, 0 87 M0 87 C2.15 66.91, 0.71 46.55, 0 29 M0 87 C0.78 70.29, -0.06 55.38, 0 29 M0 29 C0.12 10.07, 11.14 -0.35, 29 0 M0 29 C0.74 9.31, 8.7 1.47, 29 0" stroke="#1e1e1e" stroke-width="2" fill="none"></path></g><g transform="translate(3114.655686233693 1047.4907152093629) rotate(0 38.40996551513672 12.5)"><text x="38.40996551513672" y="0" font-family="Virgil, Segoe UI Emoji" font-size="20px" fill="#1e1e1e" text-anchor="middle" style="white-space: pre;" direction="ltr" dominant-baseline="text-before-edge">Reducer</text></g><g mask="url(#mask-PoZ4Mh9vMHXg9cQK2nHgM)" stroke-linecap="round"><g transform="translate(1634.1922984029998 1168.7472313988483) rotate(0 202.8250284383796 -33.900670991911056)"><path d="M0.77 1.07 C68.36 -10.17, 336.98 -56.53, 404.49 -68.19 M-0.29 0.58 C67.75 -10.42, 339.02 -55.4, 406.59 -66.86" stroke="#1e1e1e" stroke-width="2" fill="none"></path></g><g transform="translate(1634.1922984029998 1168.7472313988483) rotate(0 202.8250284383796 -33.900670991911056)"><path d="M384.83 -54.55 C391.25 -59.2, 393.39 -59.57, 406.59 -66.86 M384.83 -54.55 C389.4 -57.79, 393.79 -59.12, 406.59 -66.86" stroke="#1e1e1e" stroke-width="2" fill="none"></path></g><g transform="translate(1634.1922984029998 1168.7472313988483) rotate(0 202.8250284383796 -33.900670991911056)"><path d="M382.01 -71.41 C388.91 -72.55, 391.64 -69.38, 406.59 -66.86 M382.01 -71.41 C387.12 -71.14, 392.1 -68.97, 406.59 -66.86" stroke="#1e1e1e" stroke-width="2" fill="none"></path></g></g><mask id="mask-PoZ4Mh9vMHXg9cQK2nHgM"><rect x="0" y="0" fill="#fff" width="2139.842355279759" height="1336.5485733826704"></rect><rect x="1777.9373478985085" y="1117.3465604069372" fill="#000" width="118.15995788574219" height="35" opacity="1"></rect></mask><g transform="translate(1777.9373478985083 1117.346560406937) rotate(0 59.40455049551099 17.83934873715043)"><text x="59.079978942871094" y="0" font-family="Virgil, Segoe UI Emoji" font-size="28px" fill="#1971c2" text-anchor="middle" style="white-space: pre;" direction="ltr" dominant-baseline="text-before-edge">CallBack</text></g><g mask="url(#mask-4kMzjnfjmQpyN0mgQfvia)" stroke-linecap="round"><g transform="translate(1614.1815164899745 717.8783358576219) rotate(0 213.26331826091882 31.43464473679154)"><path d="M-0.2 0.08 C70.93 10.82, 356.45 52.9, 427.4 63.35 M-1.76 -0.93 C69.22 9.54, 355.31 50.65, 426.91 61.49" stroke="#1e1e1e" stroke-width="2" fill="none"></path></g><g transform="translate(1614.1815164899745 717.8783358576219) rotate(0 213.26331826091882 31.43464473679154)"><path d="M402.42 66.53 C411.27 66.23, 420.63 61.22, 426.91 61.49 M402.42 66.53 C408.63 65.86, 417.51 64.29, 426.91 61.49" stroke="#1e1e1e" stroke-width="2" fill="none"></path></g><g transform="translate(1614.1815164899745 717.8783358576219) rotate(0 213.26331826091882 31.43464473679154)"><path d="M404.91 49.61 C412.72 55.31, 421.2 56.29, 426.91 61.49 M404.91 49.61 C410.36 53.92, 418.5 57.32, 426.91 61.49" stroke="#1e1e1e" stroke-width="2" fill="none"></path></g></g><mask id="mask-4kMzjnfjmQpyN0mgQfvia"><rect x="0" y="0" fill="#fff" width="2140.708153011812" height="880.747625331205"></rect><rect x="1768.3648558080222" y="731.8129805944134" fill="#000" width="118.15995788574219" height="35" opacity="1"></rect></mask><g transform="translate(1768.3648558080222 731.8129805944135) rotate(0 58.63491394165442 17.277326267850555)"><text x="59.079978942871094" y="0" font-family="Virgil, Segoe UI Emoji" font-size="28px" fill="#1971c2" text-anchor="middle" style="white-space: pre;" direction="ltr" dominant-baseline="text-before-edge">CallBack</text></g><g stroke-linecap="round"><g transform="translate(2939.9172343244195 1025.7189193506417) rotate(0 60.497421988392034 16.635309803895268)"><path d="M0.4 -0.2 C20.76 5.27, 101.51 27.38, 121.46 33.13 M-0.85 -1.35 C19.46 4.28, 100.2 28.95, 120.76 34.59" stroke="#1971c2" stroke-width="2" fill="none"></path></g><g transform="translate(2939.9172343244195 1025.7189193506417) rotate(0 60.497421988392034 16.635309803895268)"><path d="M95.82 36.22 C101.5 36.53, 107.62 33.87, 120.76 34.59 M95.82 36.22 C105.52 36.11, 116.04 34.01, 120.76 34.59" stroke="#1971c2" stroke-width="2" fill="none"></path></g><g transform="translate(2939.9172343244195 1025.7189193506417) rotate(0 60.497421988392034 16.635309803895268)"><path d="M100.61 19.81 C105.18 24.09, 110.14 25.4, 120.76 34.59 M100.61 19.81 C108.35 26.07, 117.02 30.31, 120.76 34.59" stroke="#1971c2" stroke-width="2" fill="none"></path></g></g><mask></mask><g stroke-linecap="round"><g transform="translate(3241.0696280954885 1071.2018360287805) rotate(0 123.1502916605084 0.5649264020065061)"><path d="M-0.94 1.11 C40.36 1.57, 206.06 2.05, 247.34 1.96 M0.77 0.65 C42.05 0.84, 206.03 0.11, 246.94 0.27" stroke="#1971c2" stroke-width="2" fill="none"></path></g><g transform="translate(3241.0696280954885 1071.2018360287805) rotate(0 123.1502916605084 0.5649264020065061)"><path d="M223.45 8.84 C231.5 8.52, 237.15 5.33, 246.94 0.27 M223.45 8.84 C228.84 5.72, 234.39 4.86, 246.94 0.27" stroke="#1971c2" stroke-width="2" fill="none"></path></g><g transform="translate(3241.0696280954885 1071.2018360287805) rotate(0 123.1502916605084 0.5649264020065061)"><path d="M223.44 -8.26 C231.38 -4.12, 237.04 -2.85, 246.94 0.27 M223.44 -8.26 C228.92 -7.02, 234.48 -3.52, 246.94 0.27" stroke="#1971c2" stroke-width="2" fill="none"></path></g></g><mask></mask><g stroke-linecap="round"><g transform="translate(1148.3030691260146 1103.620577323662) rotate(0 -106.97248815574767 -1.7415658992639464)"><path d="M-0.64 0.02 C-36.31 -0.72, -178.95 -2.51, -214.55 -3.28 M1.23 -1.01 C-34 -1.64, -176.09 -4.82, -212.15 -5.29" stroke="#1971c2" stroke-width="2" fill="none"></path></g><g transform="translate(1148.3030691260146 1103.620577323662) rotate(0 -106.97248815574767 -1.7415658992639464)"><path d="M-188.51 -13.41 C-194.47 -12.45, -200.25 -9.84, -212.15 -5.29 M-188.51 -13.41 C-194.48 -12.31, -198.92 -10.82, -212.15 -5.29" stroke="#1971c2" stroke-width="2" fill="none"></path></g><g transform="translate(1148.3030691260146 1103.620577323662) rotate(0 -106.97248815574767 -1.7415658992639464)"><path d="M-188.82 3.69 C-194.87 0.25, -200.57 -1.54, -212.15 -5.29 M-188.82 3.69 C-194.69 1.21, -199.06 -0.9, -212.15 -5.29" stroke="#1971c2" stroke-width="2" fill="none"></path></g></g><mask></mask><g stroke-linecap="round"><g transform="translate(778.7969189196749 1090.3571781880878) rotate(0 -21.18786643744511 12.81512448948871)"><path d="M0.32 -0.28 C-6.45 3.92, -33.97 20.74, -41.27 25.07 M-0.97 -1.47 C-7.75 2.89, -34.94 21.56, -41.63 26.31" stroke="#1971c2" stroke-width="2" fill="none"></path></g><g transform="translate(778.7969189196749 1090.3571781880878) rotate(0 -21.18786643744511 12.81512448948871)"><path d="M-27.37 6.07 C-31.38 12.96, -35.37 14.34, -41.63 26.31 M-27.37 6.07 C-30.88 11.43, -35.28 17.72, -41.63 26.31" stroke="#1971c2" stroke-width="2" fill="none"></path></g><g transform="translate(778.7969189196749 1090.3571781880878) rotate(0 -21.18786643744511 12.81512448948871)"><path d="M-17.69 19.97 C-24.08 23.45, -30.46 21.4, -41.63 26.31 M-17.69 19.97 C-24.27 21.18, -31.63 23.22, -41.63 26.31" stroke="#1971c2" stroke-width="2" fill="none"></path></g></g><mask></mask><g mask="url(#mask-OrhgKrUmF-EImi_niZedg)" stroke-linecap="round"><g transform="translate(3943.6991936919344 853.5057490876961) rotate(0 -176.41815304587476 -46.74247563509954)"><path d="M-1.15 0.44 C-59.62 -15, -293.19 -76.84, -351.82 -92.53 M0.44 -0.37 C-58 -16.15, -293.21 -78.79, -352.23 -94.15" stroke="#1971c2" stroke-width="2" fill="none"></path></g><g transform="translate(3943.6991936919344 853.5057490876961) rotate(0 -176.41815304587476 -46.74247563509954)"><path d="M-327.34 -96.42 C-331.92 -94.48, -336.38 -95.83, -352.23 -94.15 M-327.34 -96.42 C-333.56 -95.97, -341.3 -94.91, -352.23 -94.15" stroke="#1971c2" stroke-width="2" fill="none"></path></g><g transform="translate(3943.6991936919344 853.5057490876961) rotate(0 -176.41815304587476 -46.74247563509954)"><path d="M-331.7 -79.89 C-335.37 -81.44, -338.89 -86.32, -352.23 -94.15 M-331.7 -79.89 C-336.6 -84.07, -343.1 -87.68, -352.23 -94.15" stroke="#1971c2" stroke-width="2" fill="none"></path></g></g><mask id="mask-OrhgKrUmF-EImi_niZedg"><rect x="0" y="0" fill="#fff" width="4396.535499783684" height="1046.990700357895"></rect><rect x="3736.607052303775" y="789.2632734525965" fill="#000" width="61.34797668457031" height="35" opacity="1"></rect></mask><g transform="translate(3736.6070523037743 789.2632734525964) rotate(0 31.196618167525003 17.390933906179896)"><text x="30.673988342285156" y="0" font-family="Virgil, Segoe UI Emoji" font-size="28px" fill="#1971c2" text-anchor="middle" style="white-space: pre;" direction="ltr" dominant-baseline="text-before-edge">Form</text></g><g stroke-linecap="round"><g transform="translate(3417.1648574595706 760.7345630663018) rotate(0 -23.093407082306612 0.0935227003841419)"><path d="M-0.07 -0.29 C-7.75 -0.15, -38.92 0.44, -46.52 0.45 M-0.77 0.75 C-8.24 0.76, -37.95 -0.27, -45.46 -0.38" stroke="#1971c2" stroke-width="2" fill="none"></path></g><g transform="translate(3417.1648574595706 760.7345630663018) rotate(0 -23.093407082306612 0.0935227003841419)"><path d="M-23.56 -7.72 C-29.04 -6.69, -32.95 -3.53, -45.46 -0.38 M-23.56 -7.72 C-28.53 -6.49, -33.19 -4.55, -45.46 -0.38" stroke="#1971c2" stroke-width="2" fill="none"></path></g><g transform="translate(3417.1648574595706 760.7345630663018) rotate(0 -23.093407082306612 0.0935227003841419)"><path d="M-23.96 8.07 C-29.29 5.55, -33.12 5.17, -45.46 -0.38 M-23.96 8.07 C-28.88 5.89, -33.46 4.4, -45.46 -0.38" stroke="#1971c2" stroke-width="2" fill="none"></path></g></g><mask></mask><g stroke-linecap="round" transform="translate(3001.7197540477614 705.3342356173184) rotate(0 76.36941907608411 58.003075688945444)"><path d="M29 0 C59.18 0.44, 86.35 -1.89, 123.74 0 M29 0 C65.69 -0.45, 101.94 -0.48, 123.74 0 M123.74 0 C142.95 -0.42, 153.73 10.93, 152.74 29 M123.74 0 C143.95 -1.58, 154.89 7.65, 152.74 29 M152.74 29 C152.08 42.29, 154.08 55.65, 152.74 87 M152.74 29 C153.52 48.41, 153.26 66.7, 152.74 87 M152.74 87 C153.73 107.88, 143.62 116.52, 123.74 116.01 M152.74 87 C154.4 105.77, 144.18 114.56, 123.74 116.01 M123.74 116.01 C94.77 114.92, 63.93 116.94, 29 116.01 M123.74 116.01 C102.13 116.07, 80.9 114.57, 29 116.01 M29 116.01 C8.82 115.69, 0.2 107.34, 0 87 M29 116.01 C8.1 114.51, -1.75 107.04, 0 87 M0 87 C1.65 68.83, -0.01 52.23, 0 29 M0 87 C0.44 72.67, 0.24 58.43, 0 29 M0 29 C-0.12 8.11, 9.08 -1.01, 29 0 M0 29 C-1 10.81, 11.87 1.98, 29 0" stroke="#1e1e1e" stroke-width="2" fill="none"></path></g><g transform="translate(3049.5491950965015 750.8373113062638) rotate(0 28.53997802734375 12.5)"><text x="28.53997802734375" y="0" font-family="Virgil, Segoe UI Emoji" font-size="20px" fill="#1e1e1e" text-anchor="middle" style="white-space: pre;" direction="ltr" dominant-baseline="text-before-edge">Cache</text></g><g stroke-linecap="round"><g transform="translate(3208.556159016151 750.449456257811) rotate(0 -25.7728008745471 3.4416100501850906)"><path d="M-1.03 -0.51 C-9.92 0.94, -44.12 6.51, -52.43 7.75 M0.62 -1.83 C-7.96 -0.62, -41.53 4.4, -50.18 6.09" stroke="#1971c2" stroke-width="2" fill="none"></path></g><g transform="translate(3208.556159016151 750.449456257811) rotate(0 -25.7728008745471 3.4416100501850906)"><path d="M-28.44 -6.26 C-37.52 -3.31, -43.34 3.93, -50.18 6.09 M-28.44 -6.26 C-35.89 -1.5, -42.03 1.57, -50.18 6.09" stroke="#1971c2" stroke-width="2" fill="none"></path></g><g transform="translate(3208.556159016151 750.449456257811) rotate(0 -25.7728008745471 3.4416100501850906)"><path d="M-25.59 10.6 C-35.59 7.23, -42.48 8.17, -50.18 6.09 M-25.59 10.6 C-33.94 10.21, -40.95 8.12, -50.18 6.09" stroke="#1971c2" stroke-width="2" fill="none"></path></g></g><mask></mask><g stroke-linecap="round"><g transform="translate(2997.148788663788 825.2921106543112) rotate(0 -32.26909440122745 35.431419104990255)"><path d="M0.33 0.72 C-10.5 12.52, -54.13 58.73, -64.85 70.47 M-0.96 0.06 C-11.98 12.05, -55.38 59.71, -65.96 71.8" stroke="#1971c2" stroke-width="2" fill="none"></path></g><g transform="translate(2997.148788663788 825.2921106543112) rotate(0 -32.26909440122745 35.431419104990255)"><path d="M-56.66 48.6 C-58.38 55.25, -63.11 63.83, -65.96 71.8 M-56.66 48.6 C-59.7 55.77, -62.58 63.39, -65.96 71.8" stroke="#1971c2" stroke-width="2" fill="none"></path></g><g transform="translate(2997.148788663788 825.2921106543112) rotate(0 -32.26909440122745 35.431419104990255)"><path d="M-43.92 60.01 C-49.54 63.18, -58.2 68.24, -65.96 71.8 M-43.92 60.01 C-51.16 63.4, -58.13 67.34, -65.96 71.8" stroke="#1971c2" stroke-width="2" fill="none"></path></g></g><mask></mask><g stroke-linecap="round" transform="translate(3502.1874579473633 1009.4352487583501) rotate(0 76.36941907608411 58.003075688945444)"><path d="M29 0 C64.78 -0.46, 98.36 -1.44, 123.74 0 M29 0 C63.42 0.58, 99.42 0.48, 123.74 0 M123.74 0 C143.8 1.6, 154 10.89, 152.74 29 M123.74 0 C143.71 1.34, 151.93 7.99, 152.74 29 M152.74 29 C153.73 52.21, 151.67 69.96, 152.74 87 M152.74 29 C153.03 49.17, 153.76 70.88, 152.74 87 M152.74 87 C151.19 105.39, 143.21 114.27, 123.74 116.01 M152.74 87 C150.93 105.33, 142.21 115.81, 123.74 116.01 M123.74 116.01 C96.01 116.16, 66.36 114.85, 29 116.01 M123.74 116.01 C102.58 115.9, 83.96 116, 29 116.01 M29 116.01 C8.02 114.81, -0.55 105.82, 0 87 M29 116.01 C11.11 116.39, -1.11 104.62, 0 87 M0 87 C-0.39 68.72, -1.38 53.83, 0 29 M0 87 C1.32 65.22, -0.63 43.26, 0 29 M0 29 C1.51 10.08, 9.54 0.66, 29 0 M0 29 C-1.55 11.31, 8.07 0.78, 29 0" stroke="#1e1e1e" stroke-width="2" fill="none"></path></g><g transform="translate(3508.8869322602636 1042.4383244472956) rotate(0 69.6699447631836 25)"><text x="69.6699447631836" y="0" font-family="Virgil, Segoe UI Emoji" font-size="20px" fill="#1e1e1e" text-anchor="middle" style="white-space: pre;" direction="ltr" dominant-baseline="text-before-edge">Components / </text><text x="69.6699447631836" y="25" font-family="Virgil, Segoe UI Emoji" font-size="20px" fill="#1e1e1e" text-anchor="middle" style="white-space: pre;" direction="ltr" dominant-baseline="text-before-edge">views</text></g><g mask="url(#mask-z1UulbSi4iMxicYdJOapU)" stroke-linecap="round"><g transform="translate(3667.317251183333 1069.1779364071103) rotate(0 166.24761208762015 -48.088119088385724)"><path d="M-0.65 0.3 C54.9 -15.6, 277.17 -79.24, 332.67 -95.47 M1.2 -0.59 C56.68 -16.82, 276.77 -81.27, 331.81 -97.23" stroke="#1971c2" stroke-width="2" fill="none"></path></g><g transform="translate(3667.317251183333 1069.1779364071103) rotate(0 166.24761208762015 -48.088119088385724)"><path d="M311.65 -82.44 C317.09 -85.66, 322.68 -89.87, 331.81 -97.23 M311.65 -82.44 C316.53 -84.73, 321.22 -88.71, 331.81 -97.23" stroke="#1971c2" stroke-width="2" fill="none"></path></g><g transform="translate(3667.317251183333 1069.1779364071103) rotate(0 166.24761208762015 -48.088119088385724)"><path d="M306.86 -98.86 C313.45 -98.04, 320.22 -98.24, 331.81 -97.23 M306.86 -98.86 C312.89 -97.5, 318.63 -97.86, 331.81 -97.23" stroke="#1971c2" stroke-width="2" fill="none"></path></g></g><mask id="mask-z1UulbSi4iMxicYdJOapU"><rect x="0" y="0" fill="#fff" width="4099.8124753585735" height="1265.3541745838818"></rect><rect x="3807.0768795673393" y="1003.5898173187245" fill="#000" width="52.97596740722656" height="35" opacity="1"></rect></mask><g transform="translate(3807.0768795673403 1003.5898173187245) rotate(0 26.247924438864175 17.122044740640547)"><text x="26.48798370361328" y="0" font-family="Virgil, Segoe UI Emoji" font-size="28px" fill="#1971c2" text-anchor="middle" style="white-space: pre;" direction="ltr" dominant-baseline="text-before-edge">View</text></g><g stroke-linecap="round"><g transform="translate(2422.082805045807 873.0731786714192) rotate(0 -17.653161271785848 0.7214871449247084)"><path d="M-0.06 -0.38 C-6.04 -0.16, -29.67 1.18, -35.51 1.41 M-0.75 0.61 C-6.86 0.92, -30.28 1.97, -36.04 2.09" stroke="#1971c2" stroke-width="2" fill="none"></path></g><g transform="translate(2422.082805045807 873.0731786714192) rotate(0 -17.653161271785848 0.7214871449247084)"><path d="M-19.66 -4.52 C-26.37 -2.39, -31.92 0.74, -36.04 2.09 M-19.66 -4.52 C-23.53 -3.36, -26.79 -1.5, -36.04 2.09" stroke="#1971c2" stroke-width="2" fill="none"></path></g><g transform="translate(2422.082805045807 873.0731786714192) rotate(0 -17.653161271785848 0.7214871449247084)"><path d="M-19.24 7.55 C-26.11 5.19, -31.81 3.82, -36.04 2.09 M-19.24 7.55 C-23.19 6.17, -26.53 5.48, -36.04 2.09" stroke="#1971c2" stroke-width="2" fill="none"></path></g></g><mask></mask><g stroke-linecap="round"><g transform="translate(2230.266138056036 872.2120488532834) rotate(0 -23.393056985239014 0)"><path d="M-0.42 -0.02 C-8.06 -0.07, -38.63 -0.37, -46.28 -0.41 M0.36 -0.51 C-7.27 -0.48, -38.65 -0.04, -46.45 0.08" stroke="#1971c2" stroke-width="2" fill="none"></path></g><g transform="translate(2230.266138056036 872.2120488532834) rotate(0 -23.393056985239014 0)"><path d="M-24.59 -8.24 C-29.37 -5.6, -34.81 -3.87, -46.45 0.08 M-24.59 -8.24 C-29.88 -6.29, -35.87 -4.3, -46.45 0.08" stroke="#1971c2" stroke-width="2" fill="none"></path></g><g transform="translate(2230.266138056036 872.2120488532834) rotate(0 -23.393056985239014 0)"><path d="M-24.36 7.76 C-29.17 6.93, -34.66 5.2, -46.45 0.08 M-24.36 7.76 C-29.75 5.66, -35.79 3.61, -46.45 0.08" stroke="#1971c2" stroke-width="2" fill="none"></path></g></g><mask></mask><g stroke-linecap="round" transform="translate(1162.6137570445562 1039.9756300853787) rotate(0 65.31472803545807 58.72519782707991)"><path d="M29.36 0 C56.49 -1.69, 83.47 1.47, 101.27 0 M29.36 0 C44.5 -0.54, 59.89 0.33, 101.27 0 M101.27 0 C121.59 -1.23, 130.61 11.64, 130.63 29.36 M101.27 0 C119 -0.06, 129.21 10.31, 130.63 29.36 M130.63 29.36 C130.56 48.69, 131.81 65.08, 130.63 88.09 M130.63 29.36 C131.49 44.88, 131.5 62.47, 130.63 88.09 M130.63 88.09 C130.56 107.29, 122.74 117.03, 101.27 117.45 M130.63 88.09 C131.32 108.02, 122.88 118.08, 101.27 117.45 M101.27 117.45 C79.46 118.34, 58.31 116.55, 29.36 117.45 M101.27 117.45 C76.02 117.24, 53.54 116.97, 29.36 117.45 M29.36 117.45 C8.53 117.25, -1.38 106.64, 0 88.09 M29.36 117.45 C7.78 115.88, -1.7 106.17, 0 88.09 M0 88.09 C0.99 66.74, -0.59 45.32, 0 29.36 M0 88.09 C0.28 69.33, 0.53 51.12, 0 29.36 M0 29.36 C-1.1 11.1, 8.97 -1.45, 29.36 0 M0 29.36 C1.3 8.1, 10.76 0.32, 29.36 0" stroke="#1e1e1e" stroke-width="2" fill="none"></path></g><g transform="translate(1173.7385284149755 1073.7008279124589) rotate(0 54.18995666503906 25)"><text x="54.18995666503906" y="0" font-family="Virgil, Segoe UI Emoji" font-size="20px" fill="#1e1e1e" text-anchor="middle" style="white-space: pre;" direction="ltr" dominant-baseline="text-before-edge">Services / </text><text x="54.18995666503906" y="25" font-family="Virgil, Segoe UI Emoji" font-size="20px" fill="#1e1e1e" text-anchor="middle" style="white-space: pre;" direction="ltr" dominant-baseline="text-before-edge">Controller</text></g><g stroke-linecap="round"><g transform="translate(1156.9085488626715 1047.6688156177065) rotate(0 -24.070905794785347 -3.099952388324823)"><path d="M-0.21 0.3 C-8.25 -0.83, -40.54 -5.3, -48.44 -6.31 M0.68 -0.02 C-7.17 -1.1, -39.3 -4.57, -47.36 -5.67" stroke="#1971c2" stroke-width="2" fill="none"></path></g><g transform="translate(1156.9085488626715 1047.6688156177065) rotate(0 -24.070905794785347 -3.099952388324823)"><path d="M-23.73 -11.18 C-29.4 -10.32, -36.39 -7.37, -47.36 -5.67 M-23.73 -11.18 C-32.32 -9.31, -41.34 -7.17, -47.36 -5.67" stroke="#1971c2" stroke-width="2" fill="none"></path></g><g transform="translate(1156.9085488626715 1047.6688156177065) rotate(0 -24.070905794785347 -3.099952388324823)"><path d="M-25.71 5.3 C-30.93 1.82, -37.4 0.41, -47.36 -5.67 M-25.71 5.3 C-33.61 0.91, -41.88 -3.19, -47.36 -5.67" stroke="#1971c2" stroke-width="2" fill="none"></path></g></g><mask></mask><g stroke-linecap="round"><g transform="translate(1159.2417451942424 1141.8985838833723) rotate(0 -16.163639424199573 23.189476681579833)"><path d="M0.77 0.84 C-4.47 8.45, -26.66 39.03, -32.04 46.64 M-0.29 0.23 C-5.6 7.38, -27.58 36.72, -32.84 44.65" stroke="#1971c2" stroke-width="2" fill="none"></path></g><g transform="translate(1159.2417451942424 1141.8985838833723) rotate(0 -16.163639424199573 23.189476681579833)"><path d="M-26.2 20.55 C-26.25 27.02, -28.85 33.85, -32.84 44.65 M-26.2 20.55 C-28.82 27.3, -29.16 34.88, -32.84 44.65" stroke="#1971c2" stroke-width="2" fill="none"></path></g><g transform="translate(1159.2417451942424 1141.8985838833723) rotate(0 -16.163639424199573 23.189476681579833)"><path d="M-12.26 30.46 C-15.83 34.57, -21.87 38.95, -32.84 44.65 M-12.26 30.46 C-19.25 34.22, -23.88 38.76, -32.84 44.65" stroke="#1971c2" stroke-width="2" fill="none"></path></g></g><mask></mask><g stroke-linecap="round" transform="translate(10 34.335645029414536) rotate(0 108.0950659549236 81.5)"><path d="M68.39 6.1 C80.03 1.12, 96.97 -1.1, 110.72 -0.85 C124.46 -0.6, 138.2 3.12, 150.85 7.62 C163.5 12.12, 176.97 18.88, 186.61 26.15 C196.24 33.42, 203.78 41.57, 208.66 51.24 C213.55 60.92, 216.27 73.71, 215.93 84.17 C215.6 94.63, 212.12 104.57, 206.65 114 C201.18 123.44, 192.88 133.66, 183.09 140.77 C173.31 147.87, 160.75 152.93, 147.94 156.62 C135.14 160.3, 120.05 162.84, 106.28 162.88 C92.51 162.92, 78.03 160.94, 65.33 156.88 C52.62 152.81, 39.8 146.23, 30.03 138.49 C20.26 130.74, 11.58 120.13, 6.7 110.43 C1.81 100.73, 0.4 90.64, 0.73 80.29 C1.07 69.94, 3.37 57.84, 8.7 48.3 C14.02 38.77, 21.71 30.49, 32.68 23.1 C43.64 15.7, 66.65 7.09, 74.48 3.94 C82.31 0.79, 79.18 2.88, 79.68 4.21 M150.25 7.72 C162.92 9.98, 175.79 15.77, 185.52 22.74 C195.25 29.71, 203.29 39.51, 208.64 49.54 C213.99 59.57, 217.83 72.27, 217.61 82.93 C217.39 93.58, 212.7 104.27, 207.31 113.45 C201.92 122.64, 195.13 131.03, 185.29 138.05 C175.46 145.07, 160.95 151.53, 148.29 155.56 C135.62 159.58, 122.78 162.15, 109.31 162.18 C95.84 162.22, 80.41 159.51, 67.49 155.77 C54.57 152.04, 41.58 147.08, 31.77 139.78 C21.96 132.48, 14.11 121.45, 8.63 111.96 C3.15 102.48, -0.81 93.35, -1.11 82.84 C-1.4 72.33, 1.38 58.92, 6.86 48.89 C12.34 38.87, 21.97 29.83, 31.77 22.69 C41.57 15.55, 52.7 9.96, 65.67 6.04 C78.64 2.12, 95.37 -1.02, 109.59 -0.83 C123.81 -0.63, 144.67 5.97, 151.02 7.22 C157.36 8.47, 148.53 5.42, 147.67 6.68" stroke="#1971c2" stroke-width="2" fill="none"></path></g><g transform="translate(70.61633597531187 63.2064423627109) rotate(0 47.543975830078125 52.5)"><text x="47.543975830078125" y="0" font-family="Virgil, Segoe UI Emoji" font-size="28px" fill="#1971c2" text-anchor="middle" style="white-space: pre;" direction="ltr" dominant-baseline="text-before-edge">AWS </text><text x="47.543975830078125" y="35" font-family="Virgil, Segoe UI Emoji" font-size="28px" fill="#1971c2" text-anchor="middle" style="white-space: pre;" direction="ltr" dominant-baseline="text-before-edge">Bucket</text><text x="47.543975830078125" y="70" font-family="Virgil, Segoe UI Emoji" font-size="28px" fill="#1971c2" text-anchor="middle" style="white-space: pre;" direction="ltr" dominant-baseline="text-before-edge">Long</text></g><g stroke-linecap="round" transform="translate(1167.55943505412 456.97328787322465) rotate(0 65.31472803545807 58.72519782707991)"><path d="M29.36 0 C44.51 0.82, 57.33 1.07, 101.27 0 M29.36 0 C53.75 -1.05, 78.31 0.3, 101.27 0 M101.27 0 C119.6 -1.03, 132.24 10.83, 130.63 29.36 M101.27 0 C120.15 1.44, 128.9 10.31, 130.63 29.36 M130.63 29.36 C131.42 49.52, 130.89 66.33, 130.63 88.09 M130.63 29.36 C129.5 51.67, 131.38 74.89, 130.63 88.09 M130.63 88.09 C130.07 107.35, 122.61 116.42, 101.27 117.45 M130.63 88.09 C129.24 109.72, 121.37 117.61, 101.27 117.45 M101.27 117.45 C72.6 115.75, 47.99 117.57, 29.36 117.45 M101.27 117.45 C83.79 116.66, 68.3 117.86, 29.36 117.45 M29.36 117.45 C8.74 118.13, -1.22 109.46, 0 88.09 M29.36 117.45 C11.8 115.98, -0.85 106.17, 0 88.09 M0 88.09 C2.18 66.36, 0.15 45.53, 0 29.36 M0 88.09 C0.33 68.7, -1.46 48.21, 0 29.36 M0 29.36 C-1.1 9.12, 10.76 1.35, 29.36 0 M0 29.36 C-0.06 9.46, 8.12 1.16, 29.36 0" stroke="#1e1e1e" stroke-width="2" fill="none"></path></g><g transform="translate(1178.6842064245393 490.69848570030456) rotate(0 54.18995666503906 25)"><text x="54.18995666503906" y="0" font-family="Virgil, Segoe UI Emoji" font-size="20px" fill="#1e1e1e" text-anchor="middle" style="white-space: pre;" direction="ltr" dominant-baseline="text-before-edge">Services / </text><text x="54.18995666503906" y="25" font-family="Virgil, Segoe UI Emoji" font-size="20px" fill="#1e1e1e" text-anchor="middle" style="white-space: pre;" direction="ltr" dominant-baseline="text-before-edge">Controller</text></g><g stroke-linecap="round"><g transform="translate(1459.0196539104427 1102.0602753452156) rotate(0 -79.13375737538695 -0.1684621748465247)"><path d="M0.79 -0.28 C-25.29 -0.33, -130.8 -0.17, -157.41 -0.02 M-0.26 -1.48 C-26.33 -1.92, -131.29 -2.01, -157.92 -1.97" stroke="#1971c2" stroke-width="2" fill="none"></path></g><g transform="translate(1459.0196539104427 1102.0602753452156) rotate(0 -79.13375737538695 -0.1684621748465247)"><path d="M-134.42 -10.52 C-140.05 -7.06, -144.22 -7.7, -157.92 -1.97 M-134.42 -10.52 C-143.65 -8.14, -152.96 -4.38, -157.92 -1.97" stroke="#1971c2" stroke-width="2" fill="none"></path></g><g transform="translate(1459.0196539104427 1102.0602753452156) rotate(0 -79.13375737538695 -0.1684621748465247)"><path d="M-134.42 6.58 C-140.09 6.27, -144.26 1.87, -157.92 -1.97 M-134.42 6.58 C-143.74 2.48, -153.05 -0.24, -157.92 -1.97" stroke="#1971c2" stroke-width="2" fill="none"></path></g></g><mask></mask><g stroke-linecap="round" transform="translate(978.9205001653125 376.06102973848306) rotate(0 73.22113312063857 57.53338255833762)"><path d="M28.77 0 C62.81 1.13, 94.88 -2.2, 117.68 0 M28.77 0 C47.85 -0.4, 68.69 -0.75, 117.68 0 M117.68 0 C135.39 0.75, 146.13 7.83, 146.44 28.77 M117.68 0 C135.52 -1.95, 145.09 11.29, 146.44 28.77 M146.44 28.77 C146.21 44.11, 146.55 59.76, 146.44 86.3 M146.44 28.77 C145.52 46.22, 145.86 64.6, 146.44 86.3 M146.44 86.3 C146.51 105.99, 136.5 116.67, 117.68 115.07 M146.44 86.3 C144.3 104.2, 138.21 115.97, 117.68 115.07 M117.68 115.07 C85.03 113.95, 56.35 116.73, 28.77 115.07 M117.68 115.07 C92.67 114.17, 66.02 115.47, 28.77 115.07 M28.77 115.07 C9.87 114.06, -0.3 105.51, 0 86.3 M28.77 115.07 C8.85 112.8, 1.86 107.07, 0 86.3 M0 86.3 C-1.41 66.06, 0.47 47.47, 0 28.77 M0 86.3 C0.08 72.5, -0.4 59.81, 0 28.77 M0 28.77 C0.24 10.06, 10.45 -0.97, 28.77 0 M0 28.77 C0.16 9.37, 8.45 -0.79, 28.77 0" stroke="#1e1e1e" stroke-width="2" fill="none"></path></g><g transform="translate(989.4116833347792 421.0944122968207) rotate(0 62.729949951171875 12.5)"><text x="62.729949951171875" y="0" font-family="Virgil, Segoe UI Emoji" font-size="20px" fill="#1e1e1e" text-anchor="middle" style="white-space: pre;" direction="ltr" dominant-baseline="text-before-edge">Model / type</text></g><g stroke-linecap="round"><g transform="translate(1461.0619280061592 561.9493027568062) rotate(0 -76.93729449466872 -23.96908301223533)"><path d="M-0.67 -0.74 C-26.36 -8.84, -127.7 -41.03, -153.15 -48.83 M1.18 1.49 C-24.69 -6.47, -127.88 -39.23, -153.71 -47.76" stroke="#1971c2" stroke-width="2" fill="none"></path></g><g transform="translate(1461.0619280061592 561.9493027568062) rotate(0 -76.93729449466872 -23.96908301223533)"><path d="M-128.73 -48.69 C-139.46 -47.26, -149.22 -47.2, -153.71 -47.76 M-128.73 -48.69 C-136.78 -48.11, -145.81 -48.74, -153.71 -47.76" stroke="#1971c2" stroke-width="2" fill="none"></path></g><g transform="translate(1461.0619280061592 561.9493027568062) rotate(0 -76.93729449466872 -23.96908301223533)"><path d="M-133.98 -32.41 C-142.69 -37.15, -150.46 -43.28, -153.71 -47.76 M-133.98 -32.41 C-140.38 -37.19, -147.67 -43.21, -153.71 -47.76" stroke="#1971c2" stroke-width="2" fill="none"></path></g></g><mask></mask><g stroke-linecap="round"><g transform="translate(1169.0400060978989 461.1912955901892) rotate(0 -14.746848135577238 -7.98581537426702)"><path d="M0.37 -0.2 C-4.47 -2.59, -24.34 -12.78, -29.17 -15.4 M-0.9 -1.36 C-5.86 -4, -25.27 -15.02, -29.95 -17.22" stroke="#1971c2" stroke-width="2" fill="none"></path></g><g transform="translate(1169.0400060978989 461.1912955901892) rotate(0 -14.746848135577238 -7.98581537426702)"><path d="M-13.33 -14.95 C-18.4 -15.11, -22.12 -15.03, -29.95 -17.22 M-13.33 -14.95 C-19.2 -15.04, -23.04 -16.01, -29.95 -17.22" stroke="#1971c2" stroke-width="2" fill="none"></path></g><g transform="translate(1169.0400060978989 461.1912955901892) rotate(0 -14.746848135577238 -7.98581537426702)"><path d="M-18.68 -4.8 C-22.11 -7.91, -24.28 -10.77, -29.95 -17.22 M-18.68 -4.8 C-22.96 -7.97, -25.18 -12.04, -29.95 -17.22" stroke="#1971c2" stroke-width="2" fill="none"></path></g></g><mask></mask><g stroke-linecap="round"><g transform="translate(1162.4884373464054 523.722120965233) rotate(0 -107.52485837264442 -1.6146184090047768)"><path d="M-1.02 1.19 C-36.86 0.63, -179.04 -1.64, -214.58 -2.25 M0.64 0.76 C-35.36 0.4, -179.4 -2.99, -215.28 -3.85" stroke="#1971c2" stroke-width="2" fill="none"></path></g><g transform="translate(1162.4884373464054 523.722120965233) rotate(0 -107.52485837264442 -1.6146184090047768)"><path d="M-191.59 -11.85 C-197.56 -8.56, -205.92 -5.35, -215.28 -3.85 M-191.59 -11.85 C-200.14 -9.04, -209.04 -6.49, -215.28 -3.85" stroke="#1971c2" stroke-width="2" fill="none"></path></g><g transform="translate(1162.4884373464054 523.722120965233) rotate(0 -107.52485837264442 -1.6146184090047768)"><path d="M-191.99 5.25 C-197.98 2.76, -206.2 0.18, -215.28 -3.85 M-191.99 5.25 C-200.44 1.81, -209.2 -1.88, -215.28 -3.85" stroke="#1971c2" stroke-width="2" fill="none"></path></g></g><mask></mask><g stroke-linecap="round"><g transform="translate(785.03429165646 555.3104573345558) rotate(0 -24.632385709988625 7.162505446792522)"><path d="M-0.19 0.16 C-8.53 2.57, -41.32 12.36, -49.57 14.8 M0.72 -0.24 C-7.49 2, -40.27 11.71, -48.49 14.08" stroke="#1971c2" stroke-width="2" fill="none"></path></g><g transform="translate(785.03429165646 555.3104573345558) rotate(0 -24.632385709988625 7.162505446792522)"><path d="M-28.34 -0.72 C-35.84 4.45, -43.09 10.01, -48.49 14.08 M-28.34 -0.72 C-35.74 5.24, -44.16 10.77, -48.49 14.08" stroke="#1971c2" stroke-width="2" fill="none"></path></g><g transform="translate(785.03429165646 555.3104573345558) rotate(0 -24.632385709988625 7.162505446792522)"><path d="M-23.54 15.69 C-32.95 14.48, -42.07 13.66, -48.49 14.08 M-23.54 15.69 C-32.78 15.39, -43.04 14.62, -48.49 14.08" stroke="#1971c2" stroke-width="2" fill="none"></path></g></g><mask></mask><g stroke-linecap="round"><g transform="translate(1164.8565443462792 565.2192686878359) rotate(0 -16.306191319769255 17.705527274240126)"><path d="M0.63 -0.14 C-4.75 5.48, -26.53 28.93, -32.03 34.73 M-0.5 -1.25 C-6.01 5.02, -27.25 29.76, -32.67 35.9" stroke="#1971c2" stroke-width="2" fill="none"></path></g><g transform="translate(1164.8565443462792 565.2192686878359) rotate(0 -16.306191319769255 17.705527274240126)"><path d="M-24.05 13.43 C-26.87 21.72, -30.56 28.46, -32.67 35.9 M-24.05 13.43 C-25.3 18.9, -27.62 24.35, -32.67 35.9" stroke="#1971c2" stroke-width="2" fill="none"></path></g><g transform="translate(1164.8565443462792 565.2192686878359) rotate(0 -16.306191319769255 17.705527274240126)"><path d="M-11.62 24.22 C-18.55 29.09, -26.26 32.34, -32.67 35.9 M-11.62 24.22 C-15.91 27.02, -21.19 29.91, -32.67 35.9" stroke="#1971c2" stroke-width="2" fill="none"></path></g></g><mask></mask><g stroke-linecap="round"><g transform="translate(982.2591491515934 375.06102973848306) rotate(0 -173.28875333520165 -100.67463090097165)"><path d="M1.12 0.55 C-56.81 -33.15, -289.21 -168.68, -347.03 -202.4 M0.25 -0.21 C-57.93 -33.78, -290.49 -168.01, -348.21 -201.42" stroke="#1971c2" stroke-width="2" fill="none"></path></g><g transform="translate(982.2591491515934 375.06102973848306) rotate(0 -173.28875333520165 -100.67463090097165)"><path d="M-323.59 -197.07 C-331.25 -199.1, -342.5 -198.51, -348.21 -201.42 M-323.59 -197.07 C-330.78 -197.08, -336.76 -199.11, -348.21 -201.42" stroke="#1971c2" stroke-width="2" fill="none"></path></g><g transform="translate(982.2591491515934 375.06102973848306) rotate(0 -173.28875333520165 -100.67463090097165)"><path d="M-332.15 -182.26 C-336.8 -189.54, -345.06 -194.1, -348.21 -201.42 M-332.15 -182.26 C-337.18 -186.26, -340.91 -192.19, -348.21 -201.42" stroke="#1971c2" stroke-width="2" fill="none"></path></g></g><mask></mask><g stroke-linecap="round"><g transform="translate(334.85679610260036 140.64873622975733) rotate(0 -47.080435705576306 -1.8267056919351603)"><path d="M1.17 0.71 C-14.71 -0.04, -79.12 -2.72, -94.94 -3.38 M0.33 0.04 C-15.2 -0.59, -76.86 -4.46, -92.64 -5.36" stroke="#1971c2" stroke-width="2" fill="none"></path></g><g transform="translate(334.85679610260036 140.64873622975733) rotate(0 -47.080435705576306 -1.8267056919351603)"><path d="M-68.68 -12.49 C-75.31 -11.22, -83.93 -6.94, -92.64 -5.36 M-68.68 -12.49 C-75.88 -9.19, -84 -8.65, -92.64 -5.36" stroke="#1971c2" stroke-width="2" fill="none"></path></g><g transform="translate(334.85679610260036 140.64873622975733) rotate(0 -47.080435705576306 -1.8267056919351603)"><path d="M-69.7 4.58 C-76.16 0.23, -84.44 -1.11, -92.64 -5.36 M-69.7 4.58 C-76.45 2.19, -84.23 -2.97, -92.64 -5.36" stroke="#1971c2" stroke-width="2" fill="none"></path></g></g><mask></mask><g stroke-linecap="round" transform="translate(3413.609787737422 1352.658484481226) rotate(0 356.00154001787087 63.243584852892695)"><path d="M31.62 0 C194.45 1.66, 356.41 2.15, 680.38 0 M31.62 0 C209.04 -1.08, 387.18 -1.15, 680.38 0 M680.38 0 C700.22 -1.81, 712.39 9.23, 712 31.62 M680.38 0 C699.18 -1.25, 713.22 9.64, 712 31.62 M712 31.62 C712.89 44.66, 713.19 57.93, 712 94.87 M712 31.62 C711.59 53.14, 711.89 76.53, 712 94.87 M712 94.87 C711.82 116.41, 702.81 127.17, 680.38 126.49 M712 94.87 C713.11 117.91, 702.98 127.61, 680.38 126.49 M680.38 126.49 C463.23 123.17, 246.43 124.23, 31.62 126.49 M680.38 126.49 C529.64 126.99, 379.91 126.7, 31.62 126.49 M31.62 126.49 C9.5 127.24, 1.4 115.77, 0 94.87 M31.62 126.49 C8.55 128.75, 1.83 115.46, 0 94.87 M0 94.87 C-1.54 78.68, -1.14 59.31, 0 31.62 M0 94.87 C-0.27 80.02, -0.28 65.33, 0 31.62 M0 31.62 C-0.47 10.9, 10.02 1.63, 31.62 0 M0 31.62 C2.09 8.33, 10.61 -1.27, 31.62 0" stroke="#e03131" stroke-width="2" fill="none"></path></g><g transform="translate(3664.5418530532784 1365.4567453848804) rotate(0 110.38995361328125 52.5)"><text x="0" y="0" font-family="Virgil, Segoe UI Emoji" font-size="28px" fill="#e03131" text-anchor="start" style="white-space: pre;" direction="ltr" dominant-baseline="text-before-edge">Yannick Perret</text><text x="0" y="35" font-family="Virgil, Segoe UI Emoji" font-size="28px" fill="#e03131" text-anchor="start" style="white-space: pre;" direction="ltr" dominant-baseline="text-before-edge">V. 1.0</text><text x="0" y="70" font-family="Virgil, Segoe UI Emoji" font-size="28px" fill="#e03131" text-anchor="start" style="white-space: pre;" direction="ltr" dominant-baseline="text-before-edge">31 janvier 2024</text></g></svg>